<svg width="414" height="187" viewBox="0 0 414 187" fill="none" xmlns="http://www.w3.org/2000/svg">
<g filter="url(#filter0_d_116_115)">
<path d="M1.73584 5.81018L1.99267 1.95874H64.6593C87.774 1.95874 106.266 8.72016 120.135 22.243C134.175 35.5947 141.195 57.4195 141.195 87.7175C141.195 117.673 136.315 140.097 126.555 154.989C117.994 167.999 104.639 176.215 86.4899 179.639C78.4425 181.008 69.0254 181.693 58.2385 181.693H53.3588L1.73584 181.95L1.99267 178.355L15.3479 176.557C17.0601 176.386 18.0874 175.274 18.4298 173.22V10.9454C18.0874 8.72017 17.0601 7.52194 15.3479 7.35077L1.73584 5.81018ZM63.3751 5.81018H35.8943V177.841H56.9544C65.173 177.841 72.1074 177.413 77.7576 176.557C83.5791 175.53 89.5718 173.305 95.7358 169.882C102.071 166.287 107.036 161.408 110.632 155.246C119.364 140.696 123.73 118.615 123.73 89.0014C123.73 58.1898 117.652 36.365 105.495 23.5268C94.366 11.7157 80.326 5.81018 63.3751 5.81018Z" fill="#007070"/>
<path d="M159.269 5.81018L159.526 1.95874H214.488C251.471 1.95874 269.963 16.423 269.963 45.3517C269.963 56.4781 262.601 68.6315 247.876 81.812C269.621 87.1184 280.493 102.695 280.493 128.543C280.493 148.742 275.357 162.692 265.083 170.395C254.981 177.927 239.4 181.693 218.34 181.693H210.892L159.269 181.95L159.526 178.355L172.881 176.557C174.593 176.386 175.621 175.274 175.963 173.22V10.9454C175.621 8.72017 174.593 7.52194 172.881 7.35077L159.269 5.81018ZM223.477 83.3526H193.428V177.841H217.056C247.704 177.841 263.029 161.751 263.029 129.57C263.029 113.137 259.69 101.326 253.012 94.1366C246.506 86.9473 236.661 83.3526 223.477 83.3526ZM224.761 79.5011C231.096 79.5011 236.575 79.8435 241.198 80.5282C248.732 68.7171 252.499 57.5051 252.499 46.8922C252.499 19.5042 239.4 5.81018 213.204 5.81018H193.428V79.5011H224.761Z" fill="#007070"/>
<path d="M339.414 7.09401H295.239L291.13 40.9867L286.25 38.9326L288.818 7.09401H288.561L289.075 5.0399L289.332 1.95874L289.845 2.2155V1.95874H406.446L409.785 38.9326L404.649 40.9867L400.539 7.09401H355.594V176.814L374.343 177.841C374.343 178.012 374.257 179.296 374.086 181.693L322.72 181.95C322.72 180.409 322.805 179.211 322.977 178.355L336.332 176.557C338.044 176.386 339.071 175.274 339.414 173.22V7.09401Z" fill="#007070"/>
</g>
<defs>
<filter id="filter0_d_116_115" x="0.3566" y="0.579501" width="413.566" height="185.508" filterUnits="userSpaceOnUse" color-interpolation-filters="sRGB">
<feFlood flood-opacity="0" result="BackgroundImageFix"/>
<feColorMatrix in="SourceAlpha" type="matrix" values="0 0 0 0 0 0 0 0 0 0 0 0 0 0 0 0 0 0 127 0" result="hardAlpha"/>
<feOffset dx="1.37924" dy="1.37924"/>
<feGaussianBlur stdDeviation="1.37924"/>
<feComposite in2="hardAlpha" operator="out"/>
<feColorMatrix type="matrix" values="0 0 0 0 0 0 0 0 0 0 0 0 0 0 0 0 0 0 0.25 0"/>
<feBlend mode="normal" in2="BackgroundImageFix" result="effect1_dropShadow_116_115"/>
<feBlend mode="normal" in="SourceGraphic" in2="effect1_dropShadow_116_115" result="shape"/>
</filter>
</defs>
</svg>
