<svg width="403" height="115" viewBox="0 0 403 115" fill="none" xmlns="http://www.w3.org/2000/svg">
<g clip-path="url(#clip0_31_816)">
<path d="M155.291 72.1066C155.291 70.8982 155.033 69.7461 154.566 68.7148C154.534 68.6423 154.502 68.5778 154.469 68.5053C154.518 68.4489 154.574 68.3925 154.622 68.3281C155.903 66.8618 156.685 64.9363 156.685 62.8335C156.685 60.3762 155.621 58.1768 153.938 56.646C153.833 56.5574 153.736 56.4768 153.623 56.3802C153.672 56.2674 153.72 56.1465 153.76 56.0257C154.107 55.1153 154.292 54.1243 154.292 53.1011C154.292 49.6126 152.141 46.6155 149.096 45.3829C149.015 45.3507 148.942 45.3184 148.862 45.2943C148.902 45.2217 148.934 45.1573 148.967 45.0848C149.45 44.0294 149.724 42.8531 149.724 41.6204C149.724 38.148 147.597 35.1671 144.568 33.9264C144.519 33.9103 144.463 33.8861 144.415 33.8619C144.431 33.8136 144.463 33.7653 144.487 33.7169C144.987 32.6454 145.269 31.453 145.269 30.1962C145.269 26.1356 142.36 22.7519 138.517 22.0187C138.421 22.0026 138.324 21.9865 138.227 21.9704C138.243 21.8737 138.251 21.769 138.259 21.6723C138.292 21.4064 138.308 21.1325 138.308 20.8505C138.308 16.2502 134.578 12.528 129.985 12.528C129.212 12.528 128.455 12.6328 127.746 12.8342C127.617 12.8664 127.488 12.9067 127.359 12.947C127.31 12.8261 127.27 12.7133 127.222 12.5925C125.965 9.57932 122.992 7.46849 119.528 7.46849C115.564 7.46849 112.253 10.2319 111.407 13.9379C111.27 14.5341 111.197 15.1545 111.197 15.791V97.0982C111.197 97.7669 111.278 98.4034 111.423 99.0238C112.293 102.69 115.588 105.421 119.528 105.421C121.993 105.421 124.217 104.349 125.731 102.641C125.747 102.641 125.747 102.625 125.756 102.625C125.756 102.625 125.772 102.625 125.772 102.641C127.077 103.495 128.632 103.987 130.308 103.987C134.368 103.987 137.744 101.086 138.485 97.2433C138.485 97.1949 138.501 97.1466 138.509 97.0982C138.574 97.0982 138.638 97.0982 138.703 97.0821C142.803 96.8163 146.082 93.5694 146.429 89.4928V89.4767C149.748 88.5985 151.843 85.255 151.843 81.6779C151.843 80.7917 151.706 79.9296 151.44 79.132C152.665 78.4311 155.267 76.7795 155.267 72.1228L155.291 72.1066Z" stroke="white" stroke-width="2.61034" stroke-miterlimit="10"/>
<path d="M149.676 41.274C149.676 45.2056 146.493 48.3879 142.562 48.3879" stroke="white" stroke-width="2.61034" stroke-miterlimit="10"/>
<path d="M144.923 89.3881C148.852 89.3881 152.037 86.2031 152.037 82.2741C152.037 78.3452 148.852 75.1601 144.923 75.1601C140.994 75.1601 137.809 78.3452 137.809 82.2741C137.809 86.2031 140.994 89.3881 144.923 89.3881Z" stroke="white" stroke-width="2.61034" stroke-miterlimit="10"/>
<path d="M127.069 14.5663C127.069 18.498 123.886 21.6803 119.955 21.6803" stroke="white" stroke-width="2.61034" stroke-miterlimit="10"/>
<path d="M119.955 7.4524C123.886 7.4524 127.069 10.6348 127.069 14.5664" stroke="white" stroke-width="2.61034" stroke-miterlimit="10"/>
<path d="M138.122 22.6229C134.191 22.6229 131.008 25.8053 131.008 29.7369V39.2276" stroke="white" stroke-width="2.61034" stroke-miterlimit="10"/>
<path d="M138.123 22.6229C142.054 22.6229 145.237 25.8053 145.237 29.7369" stroke="white" stroke-width="2.61034" stroke-miterlimit="10"/>
<path d="M123.894 46.3416C119.963 46.3416 116.78 43.1593 116.78 39.2276" stroke="white" stroke-width="2.61034" stroke-miterlimit="10"/>
<path d="M131.009 39.2276C131.009 43.1593 127.826 46.3416 123.895 46.3416" stroke="white" stroke-width="2.61034" stroke-miterlimit="10"/>
<path d="M119.335 27.6019C119.335 31.5336 116.152 34.7159 112.221 34.7159" stroke="white" stroke-width="2.61034" stroke-miterlimit="10"/>
<path d="M135.456 55.4939C135.456 51.5623 138.638 48.3799 142.57 48.3799" stroke="white" stroke-width="2.61034" stroke-miterlimit="10"/>
<path d="M142.562 62.6079C138.63 62.6079 135.448 59.4255 135.448 55.4939" stroke="white" stroke-width="2.61034" stroke-miterlimit="10"/>
<path d="M148.161 65.0571C152.093 65.0571 155.275 68.2395 155.275 72.1711" stroke="white" stroke-width="2.61034" stroke-miterlimit="10"/>
<path d="M123.516 96.8565C123.516 92.9249 126.698 89.7426 130.63 89.7426" stroke="white" stroke-width="2.61034" stroke-miterlimit="10"/>
<path d="M130.622 103.962C126.69 103.962 123.508 100.78 123.508 96.8484" stroke="white" stroke-width="2.61034" stroke-miterlimit="10"/>
<path d="M118.312 51.9651C122.243 51.9651 125.425 55.1475 125.425 59.0791V69.4319" stroke="white" stroke-width="2.61034" stroke-miterlimit="10"/>
<path d="M111.205 59.0791C111.205 55.1475 114.387 51.9651 118.319 51.9651" stroke="white" stroke-width="2.61034" stroke-miterlimit="10"/>
<path d="M125.425 69.4319C125.425 73.3635 122.243 76.5458 118.312 76.5458" stroke="white" stroke-width="2.61034" stroke-miterlimit="10"/>
<path d="M112.495 81.7827C116.426 81.7827 119.609 84.965 119.609 88.8966" stroke="white" stroke-width="2.61034" stroke-miterlimit="10"/>
<path d="M126.368 64.0178C130.3 64.0178 133.482 67.2001 133.482 71.1317" stroke="white" stroke-width="2.61034" stroke-miterlimit="10"/>
<path d="M137.035 82.967C133.103 82.967 129.921 79.7846 129.921 75.853" stroke="white" stroke-width="2.61034" stroke-miterlimit="10"/>
<path d="M131.895 34.16C135.827 34.16 139.009 37.3424 139.009 41.274" stroke="white" stroke-width="2.61034" stroke-miterlimit="10"/>
<path d="M110.585 7.33961V111.665" stroke="white" stroke-width="1.24072" stroke-miterlimit="10"/>
<path d="M110.504 7.3396C110.504 7.08179 110.714 6.75147 110.867 6.86427C111.02 6.97706 111.205 7.04957 111.205 7.3396" fill="white"/>
<path d="M110.504 7.3396C110.504 7.08179 110.714 6.75147 110.867 6.86427C111.02 6.97706 111.205 7.04957 111.205 7.3396" stroke="white" stroke-width="0.314208" stroke-miterlimit="10"/>
<path d="M101.981 85.1341C101.739 84.7635 92.756 71.2123 76.4897 75.2084L76.2964 74.5558C78.4636 73.8871 81.082 73.3876 84.0629 73.3312C84.0629 73.3312 82.5563 72.8075 80.6066 71.6554L80.9128 71.1479C83.2573 72.5175 86.0851 73.5971 89.3964 73.7904C89.3964 73.7904 102.214 76.5458 107.782 91.6922C107.782 91.6922 107.129 83.0475 101.916 75.4743C101.916 75.4743 97.3805 68.3281 90.0973 65.5002C90.0973 65.5002 84.5947 62.9704 80.7275 60.1667C78.2783 58.3862 74.2339 57.5161 69.9558 58.3137L69.8672 57.7094C71.9619 57.1938 74.4433 57.0085 77.1745 57.5967C76.9731 57.4355 73.678 54.8735 71.261 49.6448L71.4302 49.5642C73.0334 52.9802 75.5954 56.074 79.6157 57.9834C79.6157 57.9834 82.9108 60.489 89.0097 62.914C89.0097 62.914 81.2592 54.6318 81.7587 43.9971L82.0246 44.0132C82.0488 49.0647 83.7568 56.936 92.4096 64.0178C92.4096 64.0178 96.6312 66.2897 98.6696 67.9655C98.6696 67.9655 95.7531 61.6733 96.4701 54.9783L98.0814 55.1555C97.7753 57.8384 98.1701 63.9211 104.188 74.8056C104.188 74.8056 102.021 68.4006 105.784 56.1867C107.588 50.3296 107.556 44.8672 107.032 40.7745L107.79 40.6536C108.958 45.8985 107.894 52.529 107.894 52.529C108.966 50.4585 110.706 48.1301 110.706 48.1301V50.4021C102.891 61.206 107.161 79.0594 108.499 81.4764C109.828 83.9015 110.706 87.962 110.706 87.962V111.673H110.593C108.192 111.673 105.832 111.52 103.512 111.213C103.512 111.213 109.957 98.073 103.512 89.3075C97.0663 80.5419 89.4689 90.7174 89.4689 90.7174C89.4689 90.7174 88.1557 92.4737 86.7377 94.6087L86.2704 94.367C87.0358 92.9168 87.914 91.4183 88.768 90.3226C88.768 90.3226 86.2866 92.8362 81.9038 92.2078L82.0085 91.4827C84.3369 91.4183 87.0439 90.5482 89.9604 88.1151C90.4277 87.7364 90.8708 87.3255 91.2897 86.8985C92.3129 85.8834 96.7199 82.0001 101.989 85.1422L101.981 85.1341Z" fill="white"/>
<path d="M103.713 18.8041C103.689 18.6671 103.463 17.5311 103.342 15.8554C102.206 14.8161 101.497 13.3175 101.497 11.6498C101.497 8.49163 104.051 5.93768 107.209 5.93768C108.474 5.93768 109.643 6.34857 110.585 7.04949L110.561 21.2211C110.215 21.3661 109.82 21.4466 109.417 21.4466C107.79 21.4466 106.468 20.1254 106.468 18.4979C106.468 18.087 106.557 17.6923 106.702 17.3458C105.735 17.2572 104.825 16.9349 104.059 16.4193C104.535 21.2613 106.186 26.9896 110.698 31.2596V32.8629C110.698 32.8629 110.223 32.3795 109.554 31.5657C108.434 30.2203 106.75 27.9644 105.775 25.5475C104.631 22.7196 103.173 17.8615 98.9756 14.0185L99.2334 13.7123C100.78 14.9611 102.375 16.6127 103.713 18.8041Z" fill="white"/>
<path d="M108.958 34.7562C108.958 36.013 108.297 37.1168 107.306 37.7371C107.564 38.1238 107.709 38.5911 107.709 39.0826C107.709 39.3484 107.669 39.6143 107.58 39.856C107.653 40.1138 107.717 40.3797 107.774 40.6375L107.016 40.7583C106.581 41.2015 105.977 41.4673 105.308 41.4673C103.987 41.4673 102.916 40.4039 102.916 39.0745C102.916 38.5267 103.101 38.011 103.415 37.6082C102.682 37.0845 102.166 36.303 101.997 35.3926C101.957 35.1751 101.933 34.9656 101.933 34.7401C101.933 32.7984 103.504 31.2354 105.437 31.2354C106.404 31.2354 107.282 31.6302 107.919 32.2667C108.555 32.9032 108.942 33.7733 108.942 34.7401L108.958 34.7562Z" fill="white"/>
<path d="M86.3755 34.0553C86.3029 33.8538 84.9817 30.2687 85.2878 26.4982C83.3623 26.337 81.8557 24.7338 81.8557 22.768C81.8557 21.5997 82.3955 20.5443 83.2414 19.8595C82.2827 19.0297 81.6623 17.797 81.6623 16.4274C81.6623 13.9137 83.7007 11.8754 86.2143 11.8754C88.2768 11.8754 90.0251 13.245 90.581 15.1303C91.3061 14.6872 92.1198 14.3891 92.998 14.2441C92.3696 13.5593 91.9909 12.6408 91.9909 11.6418C91.9909 9.49067 93.7311 7.75044 95.8823 7.75044C98.0334 7.75044 99.7736 9.49067 99.7736 11.6418C99.7736 12.3991 99.5561 13.092 99.1935 13.6801C99.2096 13.6801 99.2096 13.6962 99.2257 13.7043L98.9679 14.0104C98.6054 14.4858 98.13 14.8725 97.5902 15.1303C99.5641 16.3227 100.885 18.4818 100.885 20.9713C100.885 23.5736 99.4272 25.8375 97.276 26.9816C98.7101 29.4227 99.8783 32.307 100.475 35.6827C101.337 40.565 100.974 46.4463 98.4604 53.4636C98.4604 53.4636 98.1945 53.9873 98.0656 55.1475L96.4543 54.9702C96.4704 54.8171 96.4865 54.6641 96.5026 54.511C97.2599 48.7263 89.5336 35.2154 78.2383 29.2616L78.4075 28.8588C81.1064 29.9786 84.0954 31.6463 86.3755 34.0553ZM97.4533 51.6509C97.4533 51.6509 103.729 39.5015 96.7443 27.2474C95.9306 27.6019 95.0282 27.7953 94.0776 27.7953C91.8217 27.7953 89.8237 26.6996 88.583 25.0077C87.9787 25.8295 87.0361 26.3854 85.9646 26.4982C85.9485 29.3421 86.6252 33.2577 89.4853 37.3988C89.4853 37.3988 95.0685 43.2317 97.4533 51.6509Z" fill="white"/>
<path d="M91.3054 93.2391C92.7153 93.2391 93.8593 94.3831 93.8593 95.793C93.8593 97.2029 92.7153 98.347 91.3054 98.347C91.2006 98.347 91.0959 98.347 90.9992 98.3308C91.0395 98.5564 91.0637 98.7981 91.0637 99.0398C91.0637 101.489 89.0737 103.479 86.6326 103.479C86.0202 103.479 85.4402 103.358 84.9004 103.133C83.3052 102.456 82.1934 100.885 82.1934 99.0398C82.1934 96.7679 83.9094 94.8907 86.125 94.6409C86.1733 94.5523 86.2136 94.4637 86.27 94.3751L86.7373 94.6168C87.5027 94.6329 88.2278 94.8423 88.8481 95.2049C89.114 94.085 90.1211 93.2552 91.3215 93.2552L91.3054 93.2391Z" fill="white"/>
<path d="M86.4802 41.4996C87.5437 41.6285 88.3654 42.5389 88.3654 43.6346C88.3654 44.827 87.3987 45.7857 86.2143 45.7857C85.1267 45.7857 84.2324 44.9881 84.0793 43.9488C83.7168 44.0616 83.322 44.1341 82.9192 44.1341C82.605 44.1341 82.2908 44.0938 82.0088 44.0213L81.7429 44.0052V43.9407C80.7278 43.6024 79.906 42.845 79.4951 41.8621C79.3098 41.419 79.2051 40.9356 79.2051 40.42C79.2051 38.3656 80.8728 36.6979 82.9272 36.6979C84.9817 36.6979 86.6413 38.3656 86.6413 40.42C86.6413 40.7987 86.5849 41.1612 86.4802 41.5076V41.4996Z" fill="white"/>
<path d="M82.8388 78.9386C84.9335 78.9386 86.6254 80.6305 86.6254 82.7252C86.6254 84.8199 84.9254 86.5118 82.8388 86.5118C82.5971 86.5118 82.3715 86.4876 82.1459 86.4474C82.444 87.1805 82.5971 87.97 82.5971 88.7999C82.5971 89.7586 82.3796 90.669 81.9928 91.4827L81.8881 92.2078C81.7995 92.2078 81.7109 92.1837 81.6222 92.1675C80.5024 93.94 78.5285 95.1163 76.2727 95.1163C74.2102 95.1163 72.3652 94.1172 71.2131 92.5784C70.4316 91.5311 69.9643 90.2259 69.9643 88.7999C69.9643 88.0023 70.1094 87.245 70.3833 86.536C67.8213 86.391 65.6218 84.8844 64.5019 82.7333C63.9863 81.7503 63.6963 80.6385 63.6963 79.4623C63.6963 75.6757 66.6611 72.5739 70.4074 72.3725C70.1255 71.9213 69.9643 71.3815 69.9643 70.8175C69.9643 69.8346 70.4397 68.9645 71.1728 68.4328C70.9311 67.9091 70.8022 67.3371 70.8022 66.7248C70.8022 64.4528 72.6472 62.6078 74.9191 62.6078C77.1911 62.6078 79.0361 64.4528 79.0361 66.7248C79.0361 67.6755 78.7138 68.5536 78.166 69.2545C78.9877 69.9071 79.8981 70.5597 80.8972 71.1479L80.591 71.6554C79.7048 71.1398 78.7299 70.4872 77.7631 69.7057C77.2475 70.2052 76.603 70.5678 75.894 70.7289C75.894 70.7611 75.894 70.7853 75.894 70.8175C75.894 71.9052 75.3139 72.8559 74.4438 73.3715C75.0239 73.7179 75.5476 74.153 75.9987 74.6444C76.0874 74.6122 76.1921 74.58 76.2807 74.5558L76.4741 75.2084C77.3603 76.4008 77.884 77.8671 77.884 79.4542C77.884 80.558 77.6262 81.6053 77.175 82.548C77.8356 82.6366 78.4721 82.846 79.0522 83.128C79.0361 82.9911 79.028 82.8622 79.028 82.7171C79.028 80.6224 80.728 78.9305 82.8146 78.9305L82.8388 78.9386Z" fill="white"/>
<path d="M79.3093 41.9427C79.6799 42.7081 79.8893 43.5621 79.8893 44.4644C79.8893 47.6548 77.3112 50.233 74.1208 50.233C73.146 50.233 72.2275 49.9913 71.4138 49.5643L71.2446 49.6448C71.2043 49.5643 71.164 49.4837 71.1318 49.4031C69.4721 48.388 68.3603 46.5591 68.3603 44.4644C68.3603 43.6185 68.5456 42.8128 68.876 42.0877H68.8357C66.7893 42.0877 65.1216 40.4281 65.1216 38.3736C65.1216 36.4562 66.5718 34.869 68.4409 34.6676C67.5869 33.6686 67.0793 32.3795 67.0793 30.9696C67.0793 27.9 69.5044 25.4025 72.5337 25.2655C72.3242 24.8708 72.2033 24.4277 72.2033 23.9604C72.2033 22.4377 73.436 21.2131 74.9506 21.2131C76.4653 21.2131 77.6979 22.4377 77.6979 23.9604C77.6979 25.0238 77.0937 25.9423 76.2236 26.4015C77.0131 26.9977 77.6496 27.7873 78.0444 28.7057L78.415 28.8507L78.2458 29.2536C78.415 29.7934 78.5117 30.3734 78.5117 30.9616C78.5117 34.1198 75.9577 36.6737 72.7995 36.6737C72.5739 36.6737 72.3484 36.6576 72.1389 36.6334C72.4128 37.149 72.5659 37.7372 72.5659 38.3656C72.5659 38.5589 72.5498 38.7362 72.5256 38.9134C73.0332 38.7684 73.573 38.6878 74.1289 38.6878C76.4169 38.6878 78.3828 40.0091 79.3254 41.9347L79.3093 41.9427Z" fill="white"/>
<path d="M69.9394 58.3218C69.9555 58.5151 69.9716 58.7085 69.9716 58.9018C69.9716 62.0842 67.3855 64.6623 64.2031 64.6623C61.0207 64.6623 58.4346 62.0842 58.4346 58.9018C58.4346 56.5574 59.8364 54.5432 61.8345 53.6409C61.7217 53.2944 61.6653 52.9319 61.6653 52.5532C61.6653 50.523 63.3169 48.8794 65.3471 48.8794C67.3774 48.8794 69.029 50.523 69.029 52.5532C69.029 53.3911 68.747 54.1726 68.2556 54.801C69.0451 55.5825 69.6091 56.5815 69.8508 57.7175L69.9394 58.3218Z" fill="white"/>
<path d="M103.503 111.205C96.4942 110.295 89.912 108.039 84.0145 104.712C78.7294 101.731 73.9921 97.8878 69.996 93.368C67.3374 90.3629 65.0009 87.0597 63.0593 83.5148C58.8215 75.7966 56.4126 66.9263 56.4126 57.5C56.4126 27.5859 80.663 3.33546 110.577 3.33546C140.491 3.33546 164.742 27.5859 164.742 57.5C164.742 87.4142 140.556 111.608 110.682 111.665" stroke="white" stroke-width="0.612302" stroke-miterlimit="10"/>
<path d="M105.342 33.5422L105.316 33.4832" stroke="white" stroke-width="0.612302" stroke-miterlimit="10"/>
<path d="M85.7529 16.1132C85.7529 16.1132 85.7529 16.1132 85.731 16.1132" stroke="white" stroke-width="0.612302" stroke-miterlimit="10"/>
<path d="M86.6816 21.9381C86.6816 21.9381 86.6816 21.9381 86.6816 21.9601" stroke="white" stroke-width="0.612302" stroke-miterlimit="10"/>
<path d="M86.3873 34.0671L86.3755 34.0553" stroke="white" stroke-width="0.612302" stroke-miterlimit="10"/>
<path d="M71.6401 26.8285C71.6401 26.8285 71.657 26.8285 71.6738 26.8285C71.6907 26.8285 71.6907 26.8285 71.7076 26.8285" stroke="white" stroke-width="0.612302" stroke-miterlimit="10"/>
<path d="M82.5723 39.0455L82.6129 38.9153C82.6129 38.9153 82.6292 38.834 82.6455 38.8015C82.6618 38.7364 82.678 38.712 82.678 38.712" stroke="white" stroke-width="0.612302" stroke-miterlimit="10"/>
<path d="M69.1172 31.7592C69.1172 31.6947 69.1333 31.6141 69.1494 31.5416C69.1494 31.5094 69.1494 31.4852 69.1655 31.4611C69.1655 31.445 69.1655 31.4208 69.1655 31.4047V31.3886C69.1655 31.3886 69.1655 31.3483 69.1816 31.3402C69.1816 31.3241 69.1816 31.308 69.1816 31.2999V31.2677C69.1816 31.2677 69.1816 31.2516 69.1816 31.2435" stroke="white" stroke-width="0.612302" stroke-miterlimit="10"/>
<path d="M62.5737 61.4961C62.5737 61.4961 62.5737 61.518 62.5518 61.518" stroke="white" stroke-width="0.612302" stroke-miterlimit="10"/>
<path d="M73.019 63.6339C73.019 63.6339 73.019 63.6159 73.001 63.6069" stroke="white" stroke-width="0.612302" stroke-miterlimit="10"/>
<path d="M69.0512 78.0926C69.0512 78.0926 69.0293 78.0926 69.0293 78.1145" stroke="white" stroke-width="0.612302" stroke-miterlimit="10"/>
<path d="M73.6543 87.9539C73.6543 87.9539 73.6822 87.9726 73.7009 88.0005" stroke="white" stroke-width="0.612302" stroke-miterlimit="10"/>
<path d="M84.0625 98.9835V99.0054" stroke="white" stroke-width="0.612302" stroke-miterlimit="10"/>
<path d="M93.2211 10.3769H93.1992" stroke="white" stroke-width="0.612302" stroke-miterlimit="10"/>
<path d="M103.713 18.826C103.713 18.826 103.713 18.826 103.713 18.8041" stroke="white" stroke-width="0.612302" stroke-miterlimit="10"/>
<path d="M93.2435 10.3868C93.2435 10.3868 93.2165 10.3688 93.2075 10.3688" stroke="white" stroke-width="0.612302" stroke-miterlimit="10"/>
<path d="M109.546 31.5657C110.223 32.3714 110.69 32.8629 110.69 32.8629V31.2596C106.178 26.9896 104.527 21.2613 104.051 16.4193C104.817 16.9349 105.727 17.2572 106.694 17.3458C106.549 17.6923 106.46 18.087 106.46 18.4979C106.46 20.1254 107.782 21.4466 109.409 21.4466C109.812 21.4466 110.207 21.3661 110.553 21.2211L110.577 7.04949C109.635 6.34857 108.458 5.93768 107.201 5.93768C104.043 5.93768 101.489 8.49163 101.489 11.6498C101.489 13.3175 102.198 14.8161 103.334 15.8554C103.455 17.5392 103.681 18.6671 103.705 18.8041C102.367 16.6127 100.764 14.9611 99.2254 13.7123C99.2093 13.7123 99.2093 13.6962 99.1932 13.6881C99.5638 13.1 99.7733 12.3991 99.7733 11.6498C99.7733 9.4987 98.033 7.75848 95.8819 7.75848C93.7308 7.75848 91.9906 9.4987 91.9906 11.6498C91.9906 12.6569 92.3692 13.5673 92.9977 14.2521C92.1195 14.3971 91.3058 14.6952 90.5807 15.1383C90.0248 13.2531 88.2765 11.8835 86.214 11.8835C83.7003 11.8835 81.662 13.9218 81.662 16.4354C81.662 17.8051 82.2743 19.0377 83.2411 19.8676C82.3952 20.5524 81.8554 21.5997 81.8554 22.776C81.8554 24.7418 83.362 26.3451 85.2875 26.5062C84.9894 30.2767 86.3026 33.8619 86.3751 34.0633C84.0951 31.6544 81.098 29.9867 78.4071 28.8668L78.0365 28.7218C77.6418 27.8033 77.0053 27.0138 76.2157 26.4176C77.0939 25.9584 77.6901 25.0399 77.6901 23.9764C77.6901 22.4537 76.4655 21.2291 74.9428 21.2291C73.4201 21.2291 72.1955 22.4537 72.1955 23.9764C72.1955 24.4518 72.3163 24.8868 72.5258 25.2816C69.4885 25.4186 67.0715 27.9161 67.0715 30.9857C67.0715 32.3956 67.5791 33.6846 68.4331 34.6837C66.572 34.8851 65.1137 36.4642 65.1137 38.3897C65.1137 40.4441 66.7815 42.1038 68.8278 42.1038H68.8681C68.5378 42.8289 68.3525 43.6345 68.3525 44.4805C68.3525 46.5752 69.4643 48.4041 71.124 49.4192C71.1643 49.5078 71.1965 49.5884 71.2368 49.6609C73.6618 54.8896 76.9489 57.4516 77.1503 57.6128C74.4191 57.0246 71.9377 57.2099 69.843 57.7255C69.6013 56.5976 69.0373 55.5905 68.2478 54.8091C68.7392 54.1806 69.0212 53.4072 69.0212 52.5613C69.0212 50.531 67.3696 48.8875 65.3393 48.8875C63.3091 48.8875 61.6575 50.531 61.6575 52.5613C61.6575 52.9399 61.7139 53.3025 61.8266 53.6489C59.8206 54.5512 58.4268 56.5654 58.4268 58.9099C58.4268 62.0922 61.0049 64.6703 64.1953 64.6703C67.3857 64.6703 69.9638 62.0922 69.9638 58.9099C69.9638 58.7165 69.9477 58.5151 69.9316 58.3298C74.2097 57.5241 78.2621 58.3942 80.7033 60.1748C84.5624 62.9785 90.0731 65.5082 90.0731 65.5082C97.3563 68.328 101.892 75.4823 101.892 75.4823C107.097 83.0555 107.757 91.7003 107.757 91.7003C102.19 76.5538 89.3722 73.7985 89.3722 73.7985C86.069 73.6051 83.2331 72.5255 80.8886 71.1559C79.8896 70.5678 78.9792 69.9152 78.1574 69.2626C78.7052 68.5617 79.0275 67.6835 79.0275 66.7328C79.0275 64.4609 77.1825 62.6159 74.9106 62.6159C72.6386 62.6159 70.7937 64.4609 70.7937 66.7328C70.7937 67.3371 70.9226 67.9171 71.1643 68.4408C70.4311 68.9726 69.9558 69.8427 69.9558 70.8256C69.9558 71.3976 70.1169 71.9293 70.3989 72.3805C66.6606 72.5819 63.6877 75.6837 63.6877 79.4703C63.6877 80.6466 63.9778 81.7665 64.4934 82.7413C65.6133 84.8924 67.8127 86.399 70.3747 86.544C70.1088 87.253 69.9558 88.0103 69.9558 88.8079C69.9558 90.234 70.423 91.5391 71.2045 92.5865C72.3566 94.1253 74.1935 95.1243 76.2641 95.1243C78.5119 95.1243 80.4858 93.948 81.6137 92.1756C81.7023 92.1917 81.7909 92.2078 81.8795 92.2159C86.2543 92.8443 88.7438 90.3306 88.7438 90.3306C87.8898 91.4183 87.0116 92.9249 86.2462 94.375C86.1979 94.4637 86.1576 94.5523 86.1012 94.6409C83.8856 94.8907 82.1696 96.7679 82.1696 99.0398C82.1696 100.877 83.2894 102.456 84.8766 103.133C85.4083 103.358 85.9965 103.479 86.6088 103.479C89.058 103.479 91.0399 101.489 91.0399 99.0398C91.0399 98.7981 91.0238 98.5645 90.9754 98.3308C91.0721 98.347 91.1769 98.347 91.2816 98.347C92.6915 98.347 93.8355 97.2029 93.8355 95.793C93.8355 94.3831 92.6915 93.2391 91.2816 93.2391C90.0892 93.2391 89.0741 94.0689 88.8082 95.1888C88.1879 94.8262 87.4628 94.6087 86.6974 94.6006C88.1234 92.4656 89.4286 90.7093 89.4286 90.7093C89.4286 90.7093 97.026 80.5338 103.471 89.2994C109.917 98.065 103.471 111.205 103.471 111.205C105.792 111.511 108.152 111.665 110.553 111.665H110.666V87.9539C110.666 87.9539 109.788 83.8934 108.458 81.4684C107.121 79.0433 102.851 61.1979 110.666 50.394V48.1221C110.666 48.1221 108.926 50.4504 107.854 52.521C107.854 52.521 108.918 45.8904 107.749 40.6455C107.685 40.3797 107.628 40.1219 107.556 39.8641C107.645 39.6224 107.685 39.3645 107.685 39.0906C107.685 38.5911 107.54 38.1319 107.282 37.7452C108.273 37.1248 108.934 36.0211 108.934 34.7642C108.934 33.7974 108.539 32.9193 107.91 32.2908C107.282 31.6624 106.396 31.2596 105.429 31.2596C103.487 31.2596 101.924 32.8306 101.924 34.7642C101.924 34.9818 101.94 35.1993 101.989 35.4168C102.158 36.3272 102.674 37.1087 103.407 37.6324C103.093 38.0352 102.907 38.5428 102.907 39.0987C102.907 40.42 103.971 41.4915 105.3 41.4915C105.969 41.4915 106.573 41.2256 107.008 40.7825C107.532 44.8753 107.556 50.3457 105.759 56.1948C101.997 68.4086 104.164 74.8136 104.164 74.8136C98.1458 63.9211 97.7511 57.8383 98.0572 55.1635C98.1861 54.0034 98.452 53.4797 98.452 53.4797C100.974 46.4624 101.328 40.5811 100.466 35.6988C99.8699 32.3231 98.7017 29.4388 97.2677 26.9977C99.4188 25.8536 100.877 23.5978 100.877 20.9874C100.877 18.3771 99.5557 16.3388 97.5819 15.1464C98.1297 14.8886 98.597 14.5019 98.9595 14.0265C103.157 17.8695 104.615 22.7276 105.759 25.5555C106.734 27.9725 108.418 30.2203 109.538 31.5738L109.546 31.5657Z" stroke="white" stroke-width="0.612302" stroke-miterlimit="10"/>
<path d="M76.2964 74.5559C76.2078 74.5801 76.103 74.6123 76.0144 74.6445C75.5632 74.1531 75.0395 73.7261 74.4595 73.3716C75.3296 72.8559 75.9097 71.9053 75.9097 70.8176C75.9097 70.7854 75.9097 70.7612 75.9097 70.729C76.6186 70.5598 77.2632 70.2053 77.7788 69.7058C78.7375 70.4873 79.7204 71.1399 80.6067 71.6555C82.5564 72.7996 84.0629 73.3313 84.0629 73.3313C81.082 73.3877 78.4717 73.8872 76.2964 74.5559Z" stroke="white" stroke-width="0.612302" stroke-miterlimit="10"/>
<path d="M101.98 85.1341C96.7033 81.9921 92.3044 85.8754 91.2812 86.8905C90.8542 87.3175 90.4191 87.7284 89.9518 88.107C87.0354 90.5321 84.3283 91.4102 82 91.4747C82.3867 90.669 82.6042 89.7506 82.6042 88.7918C82.6042 87.954 82.4431 87.1644 82.1531 86.4393C82.3786 86.4796 82.6042 86.5038 82.8459 86.5038C84.9406 86.5038 86.6325 84.8038 86.6325 82.7172C86.6325 80.6305 84.9326 78.9306 82.8459 78.9306C80.7593 78.9306 79.0593 80.6224 79.0593 82.7172C79.0593 82.8622 79.0593 82.9911 79.0835 83.1281C78.5034 82.838 77.8669 82.6366 77.2063 82.548C77.6575 81.6134 77.9153 80.558 77.9153 79.4542C77.9153 77.8671 77.3916 76.3927 76.5054 75.2084C92.7636 71.2123 101.755 84.7635 101.996 85.1341H101.98Z" stroke="white" stroke-width="0.612302" stroke-miterlimit="10"/>
<path d="M96.454 54.9783C95.737 61.6733 98.6534 67.9656 98.6534 67.9656C96.6151 66.2817 92.3935 64.0178 92.3935 64.0178C83.7407 56.9441 82.0327 49.0648 82.0085 44.0133C82.2985 44.0938 82.6127 44.1261 82.9189 44.1261C83.3217 44.1261 83.7165 44.0616 84.079 43.9408C84.2321 44.9801 85.1264 45.7777 86.2141 45.7777C87.3984 45.7777 88.3652 44.8189 88.3652 43.6265C88.3652 42.5389 87.5353 41.6205 86.4799 41.4915C86.5846 41.1451 86.641 40.7826 86.641 40.4039C86.641 38.3495 84.9733 36.6818 82.927 36.6818C80.8806 36.6818 79.2048 38.3495 79.2048 40.4039C79.2048 40.9195 79.3095 41.4029 79.4948 41.846C79.9138 42.8289 80.7275 43.5863 81.7426 43.9246V43.9891C81.2431 54.6238 88.9936 62.906 88.9936 62.906C82.8947 60.481 79.5996 57.9754 79.5996 57.9754C75.5793 56.0659 73.0173 52.9722 71.4141 49.5562C72.2197 49.9832 73.1462 50.2249 74.1211 50.2249C77.3115 50.2249 79.8896 47.6468 79.8896 44.4564C79.8896 43.554 79.6801 42.7 79.3095 41.9347C78.375 40.0172 76.4011 38.6878 74.113 38.6878C73.5571 38.6878 73.0173 38.7684 72.5098 38.9134C72.542 38.7362 72.55 38.5509 72.55 38.3656C72.55 37.7372 72.397 37.149 72.123 36.6334C72.3406 36.6656 72.5581 36.6737 72.7837 36.6737C75.9419 36.6737 78.4958 34.1198 78.4958 30.9616C78.4958 30.3654 78.4072 29.7934 78.23 29.2536C89.5253 35.2074 97.2597 48.7183 96.4943 54.503C96.4782 54.656 96.454 54.8091 96.4459 54.9622L96.454 54.9783Z" stroke="white" stroke-width="0.612302" stroke-miterlimit="10"/>
<path d="M97.4538 51.6428C95.0771 43.2237 89.4859 37.3907 89.4859 37.3907C86.6258 33.2496 85.949 29.3341 85.9651 26.4901C87.0367 26.3773 87.9793 25.8214 88.5835 24.9996C89.8242 26.6835 91.8223 27.7872 94.0781 27.7872C95.0288 27.7872 95.9311 27.5939 96.7449 27.2394C103.73 39.4935 97.4538 51.6428 97.4538 51.6428Z" stroke="white" stroke-width="0.612302" stroke-miterlimit="10"/>
<path d="M110.504 113.413C141.384 113.413 166.417 88.3798 166.417 57.5C166.417 26.6202 141.384 1.58714 110.504 1.58714C79.6243 1.58714 54.5913 26.6202 54.5913 57.5C54.5913 88.3798 79.6243 113.413 110.504 113.413Z" stroke="white" stroke-width="3.16625" stroke-miterlimit="10"/>
<path d="M114.573 3.32793C113.155 3.19903 111.56 3.1668 110.037 3.19097C108.498 3.21514 106.951 3.30376 105.412 3.43267C102.335 3.69854 99.2651 4.17388 96.2358 4.82646C90.1773 6.11552 84.2718 8.12967 78.6563 10.7561C67.4174 16.0251 57.4433 23.8078 49.153 33.0649C44.9958 37.6894 41.2737 42.7167 37.898 47.9615C36.2222 50.588 34.6431 53.287 33.1365 56.0181L32.0327 58.0806L31.7508 58.6043C31.5655 58.9588 31.2835 59.3214 30.9209 59.6114C30.1878 60.2156 29.1807 60.4009 28.3589 60.2318C27.5291 60.0626 26.7637 59.6033 26.2562 58.838C26.0064 58.4593 25.8372 58.0081 25.7728 57.557C25.7405 57.3314 25.7325 57.1058 25.7486 56.8963C25.7486 56.7916 25.7647 56.6868 25.7808 56.5821L25.805 56.4371L25.8211 56.3565C26.0064 55.4622 26.2642 54.6807 26.514 53.8831C27.5694 50.7572 28.8665 47.8326 30.22 44.9322C31.5816 42.0399 33.0318 39.1959 34.5545 36.3842C37.616 30.7768 40.887 25.2902 44.7783 20.1098C45.2697 19.4653 45.7693 18.8288 46.2929 18.1924L46.4863 17.9587C46.4299 18.0715 46.7038 17.5801 46.2688 18.3374C48.5488 23.0102 48.2265 19.6184 48.3313 20.6174C48.4279 20.5852 48.3877 20.5932 48.3715 20.6013L47.9365 20.8269L46.9375 21.3828C45.584 22.1482 44.2224 22.9538 42.8689 23.7514C40.186 25.3547 37.5273 27.0385 34.909 28.7626C29.6641 32.2189 24.5562 35.8766 19.6739 39.7921C14.8077 43.7238 10.1268 47.8971 6.05824 52.5538C5.54262 53.1258 5.05922 53.7301 4.56777 54.3182C4.13271 54.8983 3.48818 55.6234 3.37539 55.9215C3.18203 56.3243 3.11758 56.7996 3.19815 57.2589C3.23843 57.4844 3.319 57.71 3.42373 57.9114C3.48013 58.0162 3.53652 58.1129 3.60903 58.2095C3.66543 58.2901 3.83462 58.4915 3.93935 58.6285C5.89711 61.0294 7.99183 63.3497 10.1752 65.5894C18.9085 74.5483 28.8987 82.2746 39.4851 89.0261C50.1198 95.7211 61.4474 101.328 73.202 105.929L72.8556 106.888C60.8351 102.851 49.1933 97.5661 38.2605 91.0322C27.3116 84.5305 17.1038 76.7317 8.04017 67.7002C5.77626 65.4363 3.60098 63.0918 1.53043 60.6185C1.39347 60.4493 1.29679 60.3526 1.11954 60.1109C0.950353 59.8934 0.797278 59.6597 0.660316 59.418C0.394448 58.9266 0.201089 58.4029 0.0882965 57.847C-0.129232 56.7513 0.015787 55.5831 0.499183 54.5599C0.732825 54.0523 1.11149 53.5448 1.32901 53.287L2.07828 52.3282C2.5939 51.7079 3.10147 51.0714 3.6332 50.4671C7.87098 45.5768 12.6566 41.2826 17.6034 37.2462C22.5743 33.226 27.7386 29.4958 33.0398 25.967C35.6904 24.2026 38.3733 22.4946 41.1125 20.8349C42.4741 20.0212 43.8357 19.2075 45.2295 18.4099L46.301 17.8137C46.4944 17.709 46.6635 17.6204 46.9214 17.4914C46.9939 17.4592 47.0422 17.427 47.2356 17.3625C47.3806 18.3616 47.1389 14.9133 49.4189 19.6506C48.9597 20.4402 49.1933 19.989 49.1127 20.1421L48.9355 20.3677C48.4521 20.9558 47.9768 21.5681 47.5175 22.1804C43.8276 27.1352 40.6211 32.5492 37.6482 38.0519C36.1658 40.8073 34.7559 43.611 33.4346 46.4388C32.1214 49.2586 30.8484 52.1349 29.8736 55.003C29.648 55.712 29.4143 56.4371 29.2774 57.0897L29.2613 57.1541C29.2613 57.1541 29.2613 57.1541 29.2613 57.138C29.2613 57.1219 29.2613 57.0977 29.2613 57.0655C29.2613 57.0091 29.221 56.9366 29.1888 56.8883C29.1162 56.7835 29.0679 56.7755 29.0115 56.7593C28.9632 56.7432 28.802 56.7593 28.6892 56.856C28.6329 56.8963 28.6087 56.9447 28.6087 56.9527L28.8907 56.4371L30.0266 54.3182C31.5735 51.5145 33.2009 48.7511 34.9251 46.0521C38.3975 40.6703 42.2324 35.498 46.5427 30.7204C50.8369 25.9348 55.558 21.5278 60.6901 17.6284C65.8302 13.7371 71.3893 10.4016 77.2384 7.70267C83.0955 5.01176 89.2588 2.96539 95.5752 1.66022C98.7334 1.00763 101.932 0.540347 105.155 0.282535C106.766 0.15363 108.377 0.0730636 110.005 0.0569504C111.64 0.0488938 113.219 0.0730636 114.943 0.250309L114.581 3.31182L114.573 3.32793Z" fill="white"/>
<path d="M160.713 33.4591H197.258" stroke="white" stroke-width="3.74632" stroke-miterlimit="10"/>
<path d="M110.834 0.0161132C115.475 0.233642 119.946 0.797604 124.45 1.49853C128.938 2.20751 133.401 3.10985 137.816 4.16527C146.654 6.2761 155.315 9.13619 163.718 12.5925C180.54 19.497 196.259 29.2213 209.753 41.4512C213.129 44.5128 216.36 47.7193 219.438 51.0708C220.211 51.9007 220.968 52.7547 221.718 53.6087L222.282 54.2532C222.483 54.4949 222.612 54.5916 222.934 55.0427C223.474 55.8162 223.716 56.7749 223.619 57.7014C223.571 58.1606 223.45 58.6199 223.248 59.0388C223.144 59.2483 223.031 59.4497 222.894 59.635C222.773 59.8042 222.563 60.0378 222.491 60.1103L221.307 61.343C220.517 62.1648 219.711 62.9704 218.906 63.768C212.444 70.1489 205.58 76.0866 198.353 81.5651C191.127 87.0355 183.481 91.9662 175.465 96.212C171.46 98.3389 167.335 100.24 163.13 101.924C158.924 103.608 154.614 105.05 150.223 106.162L149.949 105.179C158.522 102.553 166.707 98.8223 174.498 94.4315C182.305 90.0567 189.668 84.9408 196.718 79.4381C203.767 73.9355 210.462 67.9655 216.722 61.6008C217.504 60.8032 218.277 59.9976 219.035 59.1919L220.171 57.9673C220.227 57.9109 220.267 57.8625 220.267 57.8545C220.283 57.8384 220.3 57.8223 220.308 57.7981C220.34 57.7578 220.356 57.7175 220.38 57.6692C220.42 57.5806 220.445 57.4839 220.453 57.3872C220.469 57.1939 220.42 56.9924 220.308 56.8394C220.308 56.8232 220.034 56.5171 219.873 56.3399L219.317 55.7195C218.584 54.8816 217.834 54.0598 217.069 53.2461C214.04 49.9832 210.857 46.8572 207.546 43.8843C194.277 31.9847 178.848 22.5988 162.397 15.7346C154.171 12.2944 145.655 9.54708 137.01 7.33957C132.684 6.25193 128.317 5.31736 123.918 4.5681C119.536 3.82689 115.064 3.22264 110.706 2.96483L110.802 0L110.834 0.0161132Z" fill="white"/>
<path d="M73.0337 106.935C73.3185 106.935 73.5493 106.704 73.5493 106.42C73.5493 106.135 73.3185 105.904 73.0337 105.904C72.7489 105.904 72.5181 106.135 72.5181 106.42C72.5181 106.704 72.7489 106.935 73.0337 106.935Z" fill="white"/>
<path d="M150.094 106.194C150.379 106.194 150.61 105.963 150.61 105.679C150.61 105.394 150.379 105.163 150.094 105.163C149.809 105.163 149.579 105.394 149.579 105.679C149.579 105.963 149.809 106.194 150.094 106.194Z" fill="white"/>
<path d="M257.457 62.5112L259.632 47.3487H259.882L266.045 59.7961L272.152 47.3487H272.394L274.577 62.5112H273.095L271.596 51.667L266.239 62.5112H265.852L260.43 51.5865L258.939 62.5112H257.473H257.457Z" fill="white"/>
<path d="M288.491 51.2883V62.5031H287.065V60.5776C286.461 61.3107 285.784 61.8666 285.027 62.2372C284.277 62.6078 283.447 62.7932 282.553 62.7932C280.966 62.7932 279.613 62.2211 278.485 61.069C277.357 59.9169 276.801 58.5151 276.801 56.8635C276.801 55.2119 277.365 53.8664 278.501 52.7224C279.637 51.5784 280.998 50.9983 282.593 50.9983C283.512 50.9983 284.35 51.1916 285.091 51.5864C285.84 51.9812 286.493 52.5693 287.057 53.3508V51.2883H288.483H288.491ZM282.722 52.3921C281.917 52.3921 281.176 52.5854 280.499 52.9802C279.822 53.375 279.274 53.9309 278.879 54.6399C278.477 55.3569 278.275 56.1062 278.275 56.9038C278.275 57.7014 278.477 58.4506 278.879 59.1677C279.282 59.8847 279.83 60.4487 280.515 60.8515C281.2 61.2543 281.933 61.4558 282.714 61.4558C283.496 61.4558 284.253 61.2543 284.962 60.8596C285.671 60.4648 286.211 59.925 286.598 59.2402C286.976 58.5634 287.17 57.7981 287.17 56.9441C287.17 55.6469 286.743 54.5593 285.889 53.6892C285.035 52.8191 283.979 52.384 282.73 52.384L282.722 52.3921Z" fill="white"/>
<path d="M291.19 51.2883H292.665V52.9238C293.108 52.2793 293.567 51.7959 294.059 51.4736C294.55 51.1514 295.058 50.9983 295.581 50.9983C295.976 50.9983 296.403 51.1272 296.862 51.3769L296.113 52.5935C295.807 52.4646 295.557 52.4001 295.348 52.4001C294.864 52.4001 294.405 52.5935 293.954 52.9883C293.511 53.383 293.164 53.9953 292.931 54.8252C292.753 55.4616 292.665 56.7587 292.665 58.7004V62.4951H291.19V51.2803V51.2883Z" fill="white"/>
<path d="M298.594 46.6719C298.925 46.6719 299.207 46.7928 299.432 47.0264C299.666 47.2601 299.779 47.542 299.779 47.8724C299.779 48.2027 299.666 48.4766 299.432 48.7103C299.198 48.9439 298.916 49.0567 298.594 49.0567C298.272 49.0567 297.998 48.9358 297.764 48.7103C297.531 48.4766 297.418 48.1946 297.418 47.8724C297.418 47.5501 297.539 47.2601 297.764 47.0264C297.998 46.7928 298.272 46.6719 298.594 46.6719ZM297.877 51.2884H299.319V62.5032H297.877V51.2884Z" fill="white"/>
<path d="M302.816 46.6719C303.146 46.6719 303.428 46.7928 303.654 47.0264C303.887 47.2601 304 47.542 304 47.8724C304 48.2027 303.887 48.4766 303.654 48.7103C303.42 48.9439 303.138 49.0567 302.816 49.0567C302.494 49.0567 302.22 48.9358 301.986 48.7103C301.752 48.4766 301.64 48.1946 301.64 47.8724C301.64 47.5501 301.76 47.2601 301.986 47.0264C302.22 46.7928 302.494 46.6719 302.816 46.6719ZM302.099 51.2884H303.541V62.5032H302.099V51.2884Z" fill="white"/>
<path d="M317.72 51.2883V62.5031H316.294V60.5776C315.69 61.3107 315.013 61.8666 314.256 62.2372C313.507 62.6078 312.685 62.7932 311.783 62.7932C310.196 62.7932 308.842 62.2211 307.714 61.069C306.586 59.9169 306.03 58.5151 306.03 56.8635C306.03 55.2119 306.594 53.8664 307.73 52.7224C308.866 51.5703 310.228 50.9983 311.823 50.9983C312.741 50.9983 313.579 51.1916 314.321 51.5864C315.062 51.9812 315.722 52.5693 316.286 53.3508V51.2883H317.712H317.72ZM311.952 52.3921C311.146 52.3921 310.405 52.5854 309.728 52.9802C309.051 53.375 308.512 53.9309 308.109 54.6399C307.706 55.3569 307.505 56.1062 307.505 56.9038C307.505 57.7014 307.706 58.4506 308.109 59.1677C308.512 59.8847 309.06 60.4487 309.744 60.8515C310.429 61.2543 311.162 61.4558 311.944 61.4558C312.725 61.4558 313.483 61.2543 314.192 60.8596C314.901 60.4648 315.44 59.925 315.827 59.2402C316.206 58.5634 316.399 57.7981 316.399 56.9441C316.399 55.6469 315.972 54.5593 315.118 53.6892C314.264 52.8191 313.209 52.384 311.96 52.384L311.952 52.3921Z" fill="white"/>
<path d="M265.53 69.4238L272.604 84.5863H270.968L268.583 79.5993H262.05L259.689 84.5863H257.997L265.159 69.4238H265.53ZM265.337 72.6464L262.734 78.133H267.923L265.337 72.6464Z" fill="white"/>
<path d="M285.889 73.3715V84.5863H284.463V82.6608C283.859 83.3939 283.182 83.9498 282.425 84.3204C281.675 84.691 280.853 84.8763 279.951 84.8763C278.364 84.8763 277.01 84.3043 275.883 83.1522C274.755 82.0001 274.199 80.5983 274.199 78.9467C274.199 77.2951 274.763 75.9496 275.899 74.8056C277.035 73.6615 278.396 73.0815 279.991 73.0815C280.91 73.0815 281.748 73.2748 282.489 73.6696C283.23 74.0644 283.891 74.6525 284.455 75.434V73.3715H285.881H285.889ZM280.12 74.4752C279.315 74.4752 278.573 74.6686 277.897 75.0634C277.22 75.4581 276.68 76.0141 276.277 76.723C275.875 77.4401 275.673 78.1893 275.673 78.9869C275.673 79.7845 275.875 80.5338 276.277 81.2508C276.68 81.9679 277.228 82.5319 277.913 82.9347C278.598 83.3375 279.331 83.5389 280.112 83.5389C280.894 83.5389 281.651 83.3375 282.36 82.9427C283.069 82.548 283.609 82.0082 283.996 81.3234C284.374 80.6466 284.568 79.8812 284.568 79.0272C284.568 77.7301 284.141 76.6425 283.287 75.7724C282.433 74.9022 281.377 74.4672 280.128 74.4672L280.12 74.4752Z" fill="white"/>
<path d="M288.587 73.3715H290.062V75.007C290.505 74.3625 290.964 73.8791 291.456 73.5568C291.947 73.2345 292.455 73.0815 292.978 73.0815C293.373 73.0815 293.8 73.2104 294.259 73.4601L293.51 74.6767C293.204 74.5478 292.954 74.4833 292.745 74.4833C292.261 74.4833 291.802 74.6767 291.351 75.0714C290.908 75.4662 290.561 76.0785 290.328 76.9083C290.15 77.5448 290.062 78.8419 290.062 80.7836V84.5782H288.587V73.3634V73.3715Z" fill="white"/>
<path d="M301.132 74.5961L300.205 75.5549C299.432 74.8056 298.683 74.435 297.941 74.435C297.474 74.435 297.071 74.5881 296.741 74.9023C296.411 75.2084 296.241 75.571 296.241 75.9819C296.241 76.3444 296.378 76.6909 296.652 77.0212C296.926 77.3596 297.506 77.7543 298.384 78.2055C299.456 78.7614 300.189 79.3012 300.576 79.8168C300.955 80.3405 301.14 80.9286 301.14 81.5812C301.14 82.4997 300.818 83.2812 300.165 83.9176C299.52 84.5541 298.707 84.8764 297.74 84.8764C297.095 84.8764 296.475 84.7394 295.887 84.4574C295.299 84.1754 294.807 83.7887 294.429 83.2892L295.339 82.258C296.08 83.0878 296.862 83.5067 297.684 83.5067C298.264 83.5067 298.755 83.3214 299.158 82.9508C299.561 82.5802 299.77 82.1452 299.77 81.6376C299.77 81.2267 299.633 80.8561 299.367 80.5339C299.102 80.2196 298.489 79.8168 297.547 79.3415C296.531 78.8178 295.847 78.3022 295.476 77.7946C295.114 77.287 294.928 76.707 294.928 76.0544C294.928 75.2004 295.218 74.4914 295.798 73.9355C296.378 73.3796 297.112 73.0896 298.006 73.0896C299.037 73.0896 300.076 73.5971 301.124 74.6042L301.132 74.5961Z" fill="white"/>
<path d="M313.128 80.8722L314.345 81.5087C313.942 82.2902 313.483 82.9267 312.959 83.4101C312.436 83.8935 311.847 84.256 311.195 84.5058C310.542 84.7555 309.801 84.8844 308.979 84.8844C307.15 84.8844 305.716 84.2882 304.685 83.0878C303.654 81.8874 303.138 80.5339 303.138 79.0192C303.138 77.5932 303.573 76.3283 304.451 75.2165C305.555 73.7985 307.046 73.0896 308.899 73.0896C310.752 73.0896 312.339 73.8146 313.483 75.2648C314.297 76.288 314.707 77.569 314.724 79.0998H304.629C304.653 80.405 305.072 81.4684 305.877 82.3063C306.683 83.1361 307.674 83.5551 308.858 83.5551C309.43 83.5551 309.986 83.4584 310.526 83.257C311.066 83.0556 311.525 82.7978 311.904 82.4674C312.282 82.1371 312.693 81.6054 313.128 80.8722ZM313.128 77.851C312.935 77.0776 312.653 76.4653 312.29 76.006C311.92 75.5468 311.436 75.1762 310.832 74.8942C310.228 74.6123 309.592 74.4672 308.923 74.4672C307.819 74.4672 306.876 74.8217 306.087 75.5307C305.507 76.0463 305.072 76.8198 304.774 77.851H313.136H313.128Z" fill="white"/>
<path d="M318.663 69.2063H320.105V73.3715H322.393V74.6203H320.105V84.5863H318.663V74.6203H316.697V73.3715H318.663V69.2063Z" fill="white"/>
<path d="M324.561 69.0451H326.003V75.3857C326.591 74.6122 327.227 74.0402 327.928 73.6615C328.629 73.2829 329.386 73.0895 330.208 73.0895C331.03 73.0895 331.787 73.299 332.44 73.726C333.092 74.153 333.568 74.725 333.874 75.4421C334.18 76.1591 334.341 77.287 334.341 78.8178V84.5944H332.899V79.2448C332.899 77.9557 332.851 77.0937 332.746 76.6586C332.569 75.9174 332.238 75.3615 331.771 74.9828C331.304 74.6122 330.684 74.4189 329.918 74.4189C329.048 74.4189 328.267 74.7089 327.574 75.2809C326.881 75.861 326.43 76.57 326.212 77.424C326.075 77.9718 326.003 78.995 326.003 80.4774V84.5944H324.561V69.0451Z" fill="white"/>
<path d="M258.553 23.2594H261.574C263.306 23.2594 264.474 23.3319 265.079 23.485C265.941 23.6945 266.65 24.1376 267.206 24.7982C267.753 25.4589 268.027 26.2968 268.027 27.2958C268.027 28.2948 267.761 29.1407 267.222 29.7933C266.682 30.4459 265.949 30.889 265.006 31.1227C264.321 31.2838 263.032 31.3724 261.155 31.3724H260.075V38.422H258.561V23.2594H258.553ZM260.067 24.7418V29.89L262.637 29.9222C263.677 29.9222 264.434 29.8256 264.917 29.6403C265.401 29.455 265.78 29.1488 266.053 28.7218C266.327 28.3029 266.464 27.8275 266.464 27.3038C266.464 26.7802 266.327 26.329 266.053 25.91C265.78 25.4911 265.417 25.185 264.966 25.0077C264.515 24.8305 263.781 24.7418 262.758 24.7418H260.075H260.067Z" fill="white"/>
<path d="M276.462 28.4318L275.536 29.3905C274.762 28.6412 274.013 28.2706 273.272 28.2706C272.805 28.2706 272.402 28.4237 272.072 28.7379C271.741 29.0521 271.572 29.4066 271.572 29.8175C271.572 30.18 271.709 30.5265 271.983 30.8568C272.257 31.1952 272.837 31.59 273.723 32.0411C274.795 32.597 275.528 33.1368 275.915 33.6524C276.293 34.1761 276.478 34.7643 276.478 35.4168C276.478 36.3353 276.156 37.1168 275.512 37.7533C274.867 38.3897 274.053 38.712 273.087 38.712C272.442 38.712 271.822 38.575 271.234 38.2931C270.646 38.0111 270.154 37.6244 269.775 37.1248L270.686 36.0936C271.419 36.9234 272.208 37.3424 273.03 37.3424C273.61 37.3424 274.102 37.1571 274.505 36.7865C274.907 36.4159 275.117 35.9808 275.117 35.4732C275.117 35.0624 274.98 34.6917 274.714 34.3695C274.448 34.0553 273.836 33.6524 272.893 33.1771C271.878 32.6534 271.193 32.1378 270.831 31.6302C270.468 31.1227 270.283 30.5426 270.283 29.89C270.283 29.036 270.573 28.327 271.153 27.7711C271.733 27.2072 272.466 26.9252 273.361 26.9252C274.392 26.9252 275.431 27.4327 276.478 28.4398L276.462 28.4318Z" fill="white"/>
<path d="M277.816 27.2071H279.339L283.19 35.8438L286.936 27.2071H288.475L281.78 42.5308H280.258L282.417 37.576L277.816 27.2071Z" fill="white"/>
<path d="M290.328 22.8727H291.77V31.7349L296.967 27.2071H299.086L292.922 32.5567L299.448 38.4219H297.418L291.77 33.3704V38.4219H290.328V22.8727Z" fill="white"/>
<path d="M306.248 26.9171C307.972 26.9171 309.406 27.5455 310.542 28.7943C311.573 29.9384 312.089 31.2838 312.089 32.8468C312.089 34.4098 311.541 35.7875 310.453 36.9557C309.366 38.1319 307.956 38.712 306.248 38.712C304.54 38.712 303.122 38.1239 302.026 36.9557C300.938 35.7875 300.391 34.4178 300.391 32.8468C300.391 31.2758 300.906 29.9464 301.937 28.8104C303.073 27.5536 304.508 26.9252 306.248 26.9252V26.9171ZM306.248 28.327C305.047 28.327 304.016 28.7702 303.154 29.6564C302.292 30.5426 301.857 31.6141 301.857 32.871C301.857 33.6847 302.05 34.442 302.445 35.1429C302.84 35.8438 303.372 36.3836 304.04 36.7704C304.709 37.149 305.442 37.3424 306.24 37.3424C307.037 37.3424 307.779 37.149 308.447 36.7704C309.116 36.3917 309.648 35.8438 310.042 35.1429C310.437 34.442 310.631 33.6847 310.631 32.871C310.631 31.6141 310.196 30.5426 309.333 29.6564C308.471 28.7702 307.44 28.327 306.248 28.327Z" fill="white"/>
<path d="M316.021 23.0419H317.463V27.2072H319.751V28.456H317.463V38.422H316.021V28.456H314.047V27.2072H316.021V23.0419Z" fill="white"/>
<path d="M331.36 34.6998L332.577 35.3363C332.174 36.1178 331.715 36.7542 331.191 37.2376C330.667 37.721 330.079 38.0836 329.427 38.3333C328.774 38.5831 328.033 38.712 327.211 38.712C325.382 38.712 323.948 38.1158 322.917 36.9154C321.886 35.7149 321.37 34.3614 321.37 32.8468C321.37 31.4208 321.805 30.1559 322.683 29.0441C323.787 27.6261 325.278 26.9171 327.131 26.9171C328.984 26.9171 330.571 27.6422 331.715 29.0924C332.529 30.1156 332.939 31.3966 332.955 32.9274H322.861C322.885 34.2325 323.304 35.296 324.109 36.1339C324.915 36.9637 325.906 37.3827 327.09 37.3827C327.662 37.3827 328.218 37.286 328.758 37.0846C329.298 36.8832 329.757 36.6253 330.136 36.295C330.514 35.9647 330.925 35.433 331.36 34.6998ZM331.36 31.6786C331.167 30.9051 330.885 30.2928 330.522 29.8336C330.152 29.3744 329.668 29.0038 329.064 28.7218C328.46 28.4398 327.823 28.2948 327.155 28.2948C326.051 28.2948 325.108 28.6493 324.319 29.3583C323.739 29.8739 323.304 30.6473 323.006 31.6786H331.368H331.36Z" fill="white"/>
<path d="M335.099 27.2072H336.573V28.8427C337.016 28.1981 337.475 27.7147 337.967 27.3925C338.458 27.0702 338.966 26.9171 339.489 26.9171C339.884 26.9171 340.311 27.046 340.77 27.2958L340.021 28.5123C339.715 28.3834 339.465 28.319 339.256 28.319C338.772 28.319 338.313 28.5123 337.862 28.9071C337.419 29.3019 337.073 29.9142 336.839 30.744C336.662 31.3805 336.573 32.6776 336.573 34.6192V38.4139H335.099V27.1991V27.2072Z" fill="white"/>
<path d="M353.17 27.2072V38.422H351.744V36.4964C351.14 37.2296 350.463 37.7855 349.706 38.1561C348.957 38.5267 348.127 38.712 347.232 38.712C345.645 38.712 344.292 38.14 343.164 36.9879C342.036 35.8358 341.48 34.4339 341.48 32.7823C341.48 31.1307 342.044 29.7853 343.18 28.6412C344.316 27.4972 345.677 26.9171 347.273 26.9171C348.191 26.9171 349.029 27.1105 349.77 27.5053C350.519 27.9 351.172 28.4882 351.736 29.2697V27.2072H353.162H353.17ZM347.402 28.3109C346.596 28.3109 345.855 28.5043 345.178 28.8991C344.501 29.2938 343.953 29.8497 343.559 30.5587C343.156 31.2758 342.954 32.025 342.954 32.8226C342.954 33.6202 343.156 34.3695 343.559 35.0865C343.961 35.8036 344.509 36.3675 345.194 36.7704C345.879 37.1732 346.612 37.3746 347.394 37.3746C348.175 37.3746 348.932 37.1732 349.641 36.7784C350.35 36.3836 350.89 35.8438 351.277 35.159C351.655 34.4823 351.849 33.7169 351.849 32.8629C351.849 31.5658 351.422 30.4781 350.568 29.608C349.714 28.7379 348.658 28.3029 347.41 28.3029L347.402 28.3109Z" fill="white"/>
<path d="M356.441 27.2072H357.883V29.2697C358.455 28.4882 359.108 27.9 359.849 27.5053C360.59 27.1105 361.42 26.9171 362.33 26.9171C363.926 26.9171 365.287 27.4891 366.423 28.6412C367.559 29.7933 368.123 31.171 368.123 32.7823C368.123 34.3937 367.559 35.8358 366.439 36.9879C365.319 38.14 363.966 38.712 362.379 38.712C361.484 38.712 360.671 38.5267 359.921 38.1561C359.172 37.7855 358.495 37.2296 357.891 36.4964V42.5308H356.449V27.2072H356.441ZM362.217 28.3109C360.969 28.3109 359.921 28.746 359.067 29.6161C358.213 30.4862 357.786 31.5738 357.786 32.871C357.786 33.725 357.98 34.4903 358.358 35.1671C358.737 35.8439 359.285 36.3836 359.994 36.7865C360.703 37.1893 361.452 37.3827 362.242 37.3827C363.031 37.3827 363.748 37.1812 364.425 36.7784C365.11 36.3756 365.65 35.8116 366.052 35.0946C366.455 34.3695 366.657 33.6202 366.657 32.8307C366.657 32.0411 366.455 31.2758 366.052 30.5668C365.65 29.8497 365.11 29.3019 364.433 28.9071C363.756 28.5123 363.015 28.319 362.209 28.319L362.217 28.3109Z" fill="white"/>
<path d="M380.264 34.6998L381.48 35.3363C381.078 36.1178 380.618 36.7542 380.095 37.2376C379.571 37.721 378.983 38.0836 378.33 38.3333C377.678 38.5831 376.936 38.712 376.107 38.712C374.278 38.712 372.844 38.1158 371.813 36.9154C370.781 35.7149 370.266 34.3614 370.266 32.8468C370.266 31.4208 370.701 30.1559 371.579 29.0441C372.683 27.6261 374.173 26.9171 376.026 26.9171C377.879 26.9171 379.466 27.6422 380.61 29.0924C381.424 30.1156 381.835 31.3966 381.851 32.9274H371.756C371.78 34.2325 372.199 35.296 373.005 36.1339C373.811 36.9637 374.801 37.3827 375.986 37.3827C376.558 37.3827 377.114 37.286 377.654 37.0846C378.193 36.8832 378.653 36.6253 379.031 36.295C379.41 35.9647 379.821 35.433 380.256 34.6998H380.264ZM380.264 31.6786C380.071 30.9051 379.789 30.2928 379.426 29.8336C379.063 29.3744 378.572 29.0038 377.968 28.7218C377.364 28.4398 376.727 28.2948 376.058 28.2948C374.955 28.2948 374.012 28.6493 373.222 29.3583C372.642 29.8739 372.207 30.6473 371.909 31.6786H380.272H380.264Z" fill="white"/>
<path d="M384.356 27.2071H385.799V32.4439C385.799 33.7249 385.863 34.6031 386.008 35.0865C386.218 35.7713 386.612 36.3192 387.192 36.7139C387.772 37.1168 388.465 37.3101 389.271 37.3101C390.077 37.3101 390.761 37.1168 391.317 36.73C391.881 36.3433 392.268 35.8277 392.477 35.1993C392.623 34.7642 392.695 33.8458 392.695 32.4439V27.2071H394.169V32.7098C394.169 34.2567 393.992 35.4249 393.63 36.2064C393.267 36.9879 392.727 37.6002 392.002 38.0433C391.277 38.4864 390.367 38.712 389.271 38.712C388.175 38.712 387.265 38.4944 386.532 38.0433C385.799 37.5921 385.251 36.9798 384.896 36.1903C384.534 35.4007 384.356 34.2003 384.356 32.6051V27.1991V27.2071Z" fill="white"/>
<path d="M398.641 23.0419H400.083V27.2072H402.371V28.456H400.083V38.422H398.641V28.456H396.675V27.2072H398.641V23.0419Z" fill="white"/>
<path d="M239.305 15.7023V99.2977" stroke="white" stroke-width="1.74828" stroke-miterlimit="10"/>
</g>
<defs>
<clipPath id="clip0_31_816">
<rect width="402.371" height="115" fill="white"/>
</clipPath>
</defs>
</svg>
