<svg width="711" height="221" viewBox="0 0 711 221" fill="none" xmlns="http://www.w3.org/2000/svg">
<path d="M2.23633 129.259C19.7067 127.535 59.8885 115.397 80.853 80.6405M80.853 80.6405C92.4616 74.0891 120.299 58.2968 138.781 47.5388M80.853 80.6405C84.8758 82.3646 92.1628 90.1573 89.1284 107.536C86.0941 124.914 92.0018 133.626 95.335 135.81M138.781 47.5388C140.735 54.435 147.47 68.0894 158.78 67.5377C170.09 66.986 187.629 76.043 194.985 80.6405M138.781 47.5388C125.908 61.1013 106.783 94.5019 133.264 119.604C138.551 125.121 143.746 142.43 122.23 167.533M194.985 80.6405C192.571 84.6633 192.64 95.6742 212.226 107.536C231.811 119.397 232.799 123.512 230.845 124.087M194.985 80.6405C189.008 82.7094 178.848 92.6399 186.02 115.811C186.595 119.949 186.503 129.741 181.537 135.81M167.745 175.463C201.536 151.097 271.671 95.3984 281.877 67.5377M281.877 67.5377C302.221 59.722 347.046 40.2977 363.597 25.1261C380.148 9.95447 386.814 3.63296 388.079 2.36865M281.877 67.5377C286.475 76.6177 291.67 98.2258 275.671 112.018C259.671 125.811 264.177 144.66 268.43 152.361M388.079 2.36865C399.572 18.2299 425.111 50.2283 435.318 51.3317M388.079 2.36865C387.964 19.6091 379.458 58.2968 346.357 75.1235C313.255 91.9503 319.921 122.592 327.392 135.81C331.07 143.511 331.875 163.74 305.669 183.049C279.464 202.358 287.854 214.542 295.325 218.22M435.318 51.3317C441.41 51.9903 445.348 61.2823 447.704 71.3306M435.318 51.3317C429.801 51.3317 420.422 59.1244 427.042 90.2952C429.686 95.8121 428.628 111.329 403.25 129.259M463.247 129.259C467.661 112.984 456.581 96.5018 450.489 90.2952C450.165 85.2455 449.295 78.1156 447.704 71.3306M447.704 71.3306C457.023 82.1347 480.488 103.605 499.797 103.053M444.283 158.568C465.431 135.35 510.9 88.4332 523.589 86.5023C536.278 84.5713 560.599 56.2739 571.173 42.3666M571.173 42.3666C583.471 52.0213 611.86 71.3306 627.032 71.3306C634.592 71.3306 637.329 78.066 637.674 86.5023M571.173 42.3666C577.724 55.9291 586.275 86.7092 568.069 101.329C549.863 115.949 554.507 141.442 559.104 152.361C561.748 159.602 562.69 175.877 545.312 183.049M640.824 141.327C629.515 135.534 631.514 119.374 633.928 112.018C635.946 105.214 638.022 94.996 637.674 86.5023M637.674 86.5023C644.471 95.0076 661.03 112.777 672.892 115.811M672.892 115.811C684.753 118.845 698.293 122.592 703.58 124.087M672.892 115.811C679.788 119.949 694.201 132.155 696.684 147.878" stroke="#007070" stroke-width="4.13772" stroke-linecap="round" stroke-linejoin="round"/>
<path d="M132.574 56.8486C134.068 64.3195 140.712 79.5371 155.331 80.6405M124.988 69.2618C127.747 76.2729 137.677 90.9159 155.331 93.3985M121.195 80.9853C124.643 89.4906 136.505 106.639 156.366 107.191M123.264 105.467C128.092 111.099 142.367 122.087 160.848 120.983M137.746 129.259C142.229 133.626 154.573 142.086 168.089 140.982M136.712 145.465C139.815 149.028 148.711 156.154 159.469 156.154M130.16 158.223C133.838 162.82 143.332 171.808 151.883 170.981" stroke="#007070" stroke-width="4.13772" stroke-linecap="round" stroke-linejoin="round"/>
<path d="M185.676 92.7092C187.63 94.778 193.193 98.7778 199.813 98.2261M183.607 103.398C188.319 106.846 201.744 113.398 217.743 112.019M186.365 115.811C196.595 119.949 219.674 126.983 230.156 122.018M185.676 128.225C192.802 131.673 209.881 137.534 221.191 133.397M386.01 19.2646C390.033 24.2069 399.665 34.1604 406.009 34.4363M381.873 34.4363C386.47 40.7578 397.734 53.8146 406.009 55.4697M374.976 48.2287C380.034 56.3892 392.217 72.5723 400.492 72.0206M365.322 60.9866C369.459 68.9173 380.011 84.8475 389.114 85.1233M353.253 72.0206C358.311 80.7558 370.494 98.2261 378.769 98.2261M338.082 80.6408C342.679 88.5714 354.564 105.191 365.322 108.226M326.703 92.7092C332.335 102.479 346.357 122.018 357.391 122.018M321.531 108.915C329.117 119.26 347.047 139.948 358.081 139.948M326.703 133.397C332.45 141.097 346.633 156.568 357.391 156.844M328.427 156.844C332.68 162.246 343.599 173.257 353.253 174.084M322.91 167.188C327.967 173.739 340.564 187.118 350.495 188.222M316.359 174.084C320.726 180.521 331.186 193.945 338.082 196.152M308.428 181.325C310.267 186.842 315.738 198.359 322.91 200.29M299.463 188.222C299.808 193.164 302.084 203.6 308.428 205.807M289.464 200.29C290.958 203.968 295.394 211.462 301.187 212.013M428.422 57.1937C432.1 60.6418 440.697 67.3312 445.662 66.5036M425.319 66.5036C428.997 70.9861 437.87 79.6753 443.938 78.572M425.319 80.6408C429.112 84.6636 438.146 92.7092 443.938 92.7092M428.422 96.1573C431.64 100.18 439.594 108.226 445.662 108.226M425.319 108.226C427.962 111.904 434.973 118.777 441.87 116.846M419.112 116.846C423.02 120.524 431.939 127.811 436.353 127.535M410.492 124.432C413.02 127.42 419.526 133.397 425.319 133.397M450.145 85.1233C453.708 87.0773 462.282 90.8472 468.075 90.2955M456.352 98.2261C461.409 98.9157 473.178 99.8812 479.799 98.2261M462.213 108.226C471.178 109.26 489.867 110.708 492.901 108.226M464.282 116.846C468.65 117.995 478.419 120.156 482.557 119.604M577.38 60.6418C584.851 65.5841 601.172 75.0549 606.689 73.3998M579.104 76.5031C582.897 81.1006 592.965 90.2955 602.896 90.2955M576.69 92.7092C580.483 97.8813 590.345 108.226 599.448 108.226M567.036 102.019C570.714 107.881 580.552 119.604 590.483 119.604M559.45 114.087C564.622 121.213 577.932 135.052 589.793 133.397M554.967 131.328C561.404 137.764 576.414 150.017 584.966 147.534M559.45 152.016C565.312 156.614 578.966 165.533 586.69 164.43M561.174 167.533C565.886 171.326 576.828 178.705 582.897 177.877M638.066 102.019C641.859 103.858 650.48 106.984 654.617 104.778M634.273 111.329C639.79 115.237 652.755 122.363 660.479 119.604M632.894 123.397C643.583 129.719 666.548 141.258 672.892 136.845M687.719 128.569C692.776 130.868 703.58 135.052 706.339 133.397M694.96 140.638C698.408 142.247 705.994 144.982 708.752 143.051M525.314 87.1922C531.52 89.9507 542.071 101.26 534.623 124.432C527.176 147.603 531.52 162.821 534.623 167.533M282.567 66.5036C288.544 77.7674 302.084 98.7778 308.428 92.7092" stroke="#007070" stroke-width="4.13772" stroke-linecap="round" stroke-linejoin="round"/>
</svg>
