<svg width="866" height="1104" viewBox="0 0 866 1104" fill="none" xmlns="http://www.w3.org/2000/svg">
<g clip-path="url(#clip0_2055_31)">
<g filter="url(#filter0_f_2055_31)">
<path d="M270.481 2297.67C270.481 2545.88 -127.716 1999.6 -424.169 1999.6C-720.621 1999.6 -960.944 1798.4 -960.944 1550.19C-960.944 1301.98 -720.621 1100.77 -424.169 1100.77C-127.716 1100.77 270.481 2049.46 270.481 2297.67Z" fill="url(#paint0_linear_2055_31)"/>
</g>
<g filter="url(#filter1_f_2055_31)">
<path d="M313.239 848.758C370.469 1796.94 -248.859 1107.35 -464.295 1107.35C-679.732 1107.35 -854.378 928.531 -854.378 707.946C-854.378 487.361 -679.732 308.54 -464.295 308.54C-248.859 308.54 313.239 628.173 313.239 848.758Z" fill="#29A3A3"/>
</g>
<g filter="url(#filter2_f_2055_31)">
<path d="M1645.31 1369.89C1645.31 1518.52 1532.81 1639.02 1394.03 1639.02C1255.24 1639.02 850.672 1787.65 850.672 1639.02C850.672 1490.39 1255.24 1100.77 1394.03 1100.77C1532.81 1100.77 1645.31 1221.26 1645.31 1369.89Z" fill="#2C8484"/>
</g>
<g filter="url(#filter3_f_2055_31)">
<path d="M1216.42 1088.93C1216.42 1392.74 774.366 1003.39 535.58 1238.95C83.0048 1731.14 -28.1655 992.669 -28.1655 688.864C-28.1655 385.059 224.232 138.776 535.58 138.776C846.922 138.776 1216.42 785.123 1216.42 1088.93Z" fill="#7FE6E6"/>
</g>
<g filter="url(#filter4_f_2055_31)">
<path d="M1594.01 660.075C1594.01 777.907 1652.51 1065.24 1420.35 1065.24C1188.2 1065.24 753.315 777.907 753.315 660.075C753.315 542.242 941.516 446.72 1173.66 446.72C1405.81 446.72 1594.01 542.242 1594.01 660.075Z" fill="url(#paint1_linear_2055_31)"/>
</g>
</g>
<defs>
<filter id="filter0_f_2055_31" x="-1160.94" y="900.772" width="1631.42" height="1661.57" filterUnits="userSpaceOnUse" color-interpolation-filters="sRGB">
<feFlood flood-opacity="0" result="BackgroundImageFix"/>
<feBlend mode="normal" in="SourceGraphic" in2="BackgroundImageFix" result="shape"/>
<feGaussianBlur stdDeviation="100" result="effect1_foregroundBlur_2055_31"/>
</filter>
<filter id="filter1_f_2055_31" x="-1054.38" y="108.54" width="1571.33" height="1440.97" filterUnits="userSpaceOnUse" color-interpolation-filters="sRGB">
<feFlood flood-opacity="0" result="BackgroundImageFix"/>
<feBlend mode="normal" in="SourceGraphic" in2="BackgroundImageFix" result="shape"/>
<feGaussianBlur stdDeviation="100" result="effect1_foregroundBlur_2055_31"/>
</filter>
<filter id="filter2_f_2055_31" x="650.672" y="900.772" width="1194.64" height="1004.3" filterUnits="userSpaceOnUse" color-interpolation-filters="sRGB">
<feFlood flood-opacity="0" result="BackgroundImageFix"/>
<feBlend mode="normal" in="SourceGraphic" in2="BackgroundImageFix" result="shape"/>
<feGaussianBlur stdDeviation="100" result="effect1_foregroundBlur_2055_31"/>
</filter>
<filter id="filter3_f_2055_31" x="-228.166" y="-61.224" width="1644.58" height="1664.92" filterUnits="userSpaceOnUse" color-interpolation-filters="sRGB">
<feFlood flood-opacity="0" result="BackgroundImageFix"/>
<feBlend mode="normal" in="SourceGraphic" in2="BackgroundImageFix" result="shape"/>
<feGaussianBlur stdDeviation="100" result="effect1_foregroundBlur_2055_31"/>
</filter>
<filter id="filter4_f_2055_31" x="553.315" y="246.72" width="1247.26" height="1018.52" filterUnits="userSpaceOnUse" color-interpolation-filters="sRGB">
<feFlood flood-opacity="0" result="BackgroundImageFix"/>
<feBlend mode="normal" in="SourceGraphic" in2="BackgroundImageFix" result="shape"/>
<feGaussianBlur stdDeviation="100" result="effect1_foregroundBlur_2055_31"/>
</filter>
<linearGradient id="paint0_linear_2055_31" x1="-345.231" y1="1100.77" x2="-345.231" y2="2362.34" gradientUnits="userSpaceOnUse">
<stop stop-color="#7FE6E6"/>
<stop offset="1" stop-color="#008F8F"/>
</linearGradient>
<linearGradient id="paint1_linear_2055_31" x1="1176.95" y1="446.72" x2="1176.95" y2="1065.24" gradientUnits="userSpaceOnUse">
<stop stop-color="#A6EDED"/>
<stop offset="1" stop-color="#008F8F"/>
</linearGradient>
<clipPath id="clip0_2055_31">
<rect width="2526" height="1316" fill="white" transform="translate(-932 -106)"/>
</clipPath>
</defs>
</svg>
