<svg width="330" height="171" viewBox="0 0 330 171" fill="none" xmlns="http://www.w3.org/2000/svg">
<path d="M0 127.784C8.16008 126.978 26.9282 121.309 36.7203 105.075M36.7203 105.075C42.1425 102.015 55.1449 94.6386 63.7774 89.6137M36.7203 105.075C38.5993 105.88 42.0029 109.52 40.5856 117.637C39.1684 125.754 41.9278 129.824 43.4846 130.844M63.7774 89.6137C64.6901 92.8348 67.836 99.2125 73.1186 98.9549C78.4011 98.6972 86.5934 102.928 90.0293 105.075M63.7774 89.6137C57.7647 95.9485 48.8316 111.549 61.2006 123.274C63.6701 125.851 66.0966 133.936 56.0468 145.661M90.0293 105.075C88.9019 106.954 88.9341 112.097 98.082 117.637C107.23 123.177 107.692 125.099 106.779 125.368M90.0293 105.075C87.2376 106.041 82.4919 110.68 85.8418 121.502C86.1103 123.435 86.0673 128.009 83.7481 130.844M77.306 149.365C93.0893 137.984 125.848 111.968 130.615 98.9549M130.615 98.9549C140.117 95.3043 161.054 86.2316 168.785 79.1452C176.515 72.0588 179.629 69.1062 180.22 68.5156M130.615 98.9549C132.762 103.196 135.189 113.289 127.716 119.731C120.243 126.173 122.347 134.977 124.334 138.574M180.22 68.5156C185.588 75.9241 197.517 90.8699 202.284 91.3853M180.22 68.5156C180.166 76.5683 176.193 94.6386 160.732 102.498C145.271 110.357 148.385 124.67 151.874 130.844C153.592 134.44 153.968 143.889 141.728 152.908C129.488 161.927 133.406 167.618 136.896 169.336M202.284 91.3853C205.13 91.693 206.969 96.0331 208.07 100.726M202.284 91.3853C199.707 91.3853 195.326 95.0251 198.419 109.584C199.653 112.161 199.16 119.409 187.306 127.784M215.329 127.784C217.391 120.182 212.216 112.483 209.37 109.584C209.219 107.226 208.813 103.896 208.07 100.726M208.07 100.726C212.422 105.773 223.382 115.801 232.401 115.543M206.471 141.473C216.349 130.629 237.587 108.715 243.514 107.813C249.441 106.911 260.8 93.6938 265.739 87.1979M265.739 87.1979C271.484 91.7074 284.744 100.726 291.83 100.726C295.361 100.726 296.64 103.872 296.801 107.813M265.739 87.1979C268.799 93.5327 272.793 107.909 264.29 114.738C255.786 121.567 257.955 133.474 260.102 138.574C261.337 141.956 261.777 149.558 253.66 152.908M298.272 133.42C292.99 130.715 293.924 123.167 295.051 119.731C295.994 116.553 296.964 111.78 296.801 107.813M296.801 107.813C299.976 111.785 307.71 120.085 313.25 121.502M313.25 121.502C318.791 122.92 325.115 124.67 327.584 125.368M313.25 121.502C316.471 123.435 323.203 129.136 324.363 136.48" stroke="#007070" stroke-width="2" stroke-linecap="round" stroke-linejoin="round"/>
<path d="M60.8783 93.9622C61.5762 97.4517 64.6791 104.56 71.5078 105.075M57.3351 99.7601C58.6235 103.035 63.2619 109.874 71.5078 111.034M55.5635 105.236C57.174 109.209 62.7143 117.218 71.991 117.476M56.5298 116.671C58.7846 119.301 65.4522 124.434 74.0847 123.918M63.2941 127.784C65.3878 129.824 71.1535 133.775 77.4668 133.259M62.8109 135.353C64.2604 137.017 68.4156 140.346 73.4405 140.346M59.7509 141.312C61.4688 143.459 65.9032 147.658 69.8973 147.271" stroke="#007070" stroke-width="2" stroke-linecap="round" stroke-linejoin="round"/>
<path d="M85.6812 110.712C86.5938 111.678 89.1921 113.547 92.2844 113.289M84.7148 115.705C86.9159 117.315 93.1863 120.375 100.659 119.731M86.0033 121.503C90.7812 123.435 101.561 126.721 106.457 124.402M85.6812 127.301C89.0096 128.911 96.9872 131.649 102.27 129.716M179.254 76.4075C181.133 78.7159 185.631 83.365 188.595 83.4939M177.321 83.4939C179.468 86.4465 184.729 92.5451 188.595 93.3182M174.1 89.936C176.462 93.7476 182.153 101.306 186.018 101.049M169.59 95.895C171.523 99.5993 176.451 107.04 180.703 107.169M163.953 101.049C166.316 105.129 172.006 113.289 175.871 113.289M156.867 105.075C159.014 108.779 164.565 116.542 169.59 117.959M151.552 110.712C154.183 115.275 160.732 124.402 165.886 124.402M149.136 118.282C152.68 123.113 161.054 132.776 166.208 132.776M151.552 129.716C154.237 133.313 160.861 140.539 165.886 140.668M152.358 140.668C154.344 143.191 159.444 148.334 163.953 148.721M149.781 145.5C152.143 148.56 158.027 154.809 162.665 155.324M146.721 148.721C148.761 151.727 153.646 157.997 156.867 159.028M143.016 152.103C143.875 154.68 146.431 160.059 149.781 160.961M138.829 155.324C138.99 157.632 140.053 162.507 143.016 163.538M134.158 160.961C134.856 162.679 136.929 166.179 139.634 166.437M199.063 94.1234C200.781 95.734 204.797 98.8584 207.116 98.4719M197.614 98.4719C199.332 100.566 203.476 104.624 206.311 104.109M197.614 105.075C199.385 106.954 203.605 110.712 206.311 110.712M199.063 112.323C200.566 114.202 204.281 117.959 207.116 117.959M197.614 117.959C198.849 119.677 202.123 122.888 205.344 121.986M194.715 121.986C196.54 123.704 200.706 127.107 202.768 126.978M190.688 125.529C191.87 126.925 194.908 129.716 197.614 129.716M209.21 107.169C210.874 108.081 214.879 109.842 217.584 109.585M212.109 113.289C214.471 113.611 219.968 114.062 223.06 113.289M214.847 117.959C219.034 118.443 227.763 119.119 229.18 117.959M215.813 121.986C217.853 122.523 222.416 123.532 224.349 123.274M268.639 95.734C272.128 98.0424 279.751 102.466 282.328 101.693M269.444 103.142C271.216 105.29 275.918 109.585 280.557 109.585M268.317 110.712C270.088 113.128 274.694 117.959 278.946 117.959M263.807 115.06C265.525 117.798 270.12 123.274 274.759 123.274M260.264 120.697C262.68 124.026 268.896 130.489 274.437 129.716M258.17 128.75C261.176 131.756 268.188 137.479 272.182 136.32M260.264 138.413C263.002 140.561 269.379 144.727 272.987 144.211M261.069 145.661C263.27 147.432 268.381 150.879 271.216 150.492M296.984 115.06C298.756 115.919 302.782 117.38 304.715 116.349M295.213 119.409C297.789 121.234 303.845 124.563 307.453 123.274M294.568 125.046C299.561 127.998 310.287 133.388 313.251 131.327M320.176 127.462C322.538 128.535 327.584 130.489 328.873 129.716M323.558 133.099C325.169 133.85 328.712 135.128 330 134.226M244.319 108.135C247.218 109.424 252.147 114.706 248.668 125.529C245.189 136.352 247.218 143.46 248.668 145.661M130.937 98.4719C133.729 103.733 140.053 113.547 143.016 110.712" stroke="#007070" stroke-width="2" stroke-linecap="round" stroke-linejoin="round"/>
<rect y="46" width="126" height="36" rx="18" fill="#2C8484"/>
<path d="M30.6198 59.368C29.4931 59.7147 28.6178 60.33 27.9938 61.214C27.3698 62.098 27.0578 63.1727 27.0578 64.438C27.0578 65.0707 27.1358 65.634 27.2918 66.128C27.4478 66.6133 27.6645 66.9947 27.9418 67.272C28.2191 67.5493 28.5355 67.688 28.8908 67.688C29.1941 67.688 29.4715 67.5927 29.7228 67.402C29.9828 67.2027 30.1908 66.9253 30.3468 66.57C30.5028 66.2147 30.5808 65.803 30.5808 65.335C30.5808 64.6243 30.4161 64.113 30.0868 63.801C29.7575 63.4803 29.3631 63.32 28.9038 63.32C28.7131 63.32 28.5268 63.3417 28.3448 63.385C28.1628 63.4283 28.0068 63.4803 27.8768 63.541L27.6688 63.333C27.8421 63.1077 28.0718 62.93 28.3578 62.8C28.6438 62.67 28.9601 62.605 29.3068 62.605C29.6881 62.605 30.0565 62.696 30.4118 62.878C30.7671 63.0513 31.0575 63.3287 31.2828 63.71C31.5081 64.0827 31.6208 64.568 31.6208 65.166C31.6208 65.816 31.4821 66.3663 31.2048 66.817C30.9275 67.2677 30.5721 67.61 30.1388 67.844C29.7055 68.078 29.2505 68.195 28.7738 68.195C28.2278 68.195 27.7425 68.0477 27.3178 67.753C26.8931 67.4583 26.5595 67.0423 26.3168 66.505C26.0741 65.9677 25.9528 65.335 25.9528 64.607C25.9528 63.8617 26.0785 63.177 26.3298 62.553C26.5811 61.929 26.9235 61.3787 27.3568 60.902C27.7988 60.4167 28.2971 60.018 28.8518 59.706C29.4151 59.3853 30.0045 59.16 30.6198 59.03V59.368ZM41.7972 68.104C41.7278 67.9047 41.6455 67.7053 41.5502 67.506C41.4548 67.298 41.3248 67.012 41.1602 66.648L38.6772 61.123H38.6512L38.3912 66.7C38.3825 67.0207 38.4562 67.2633 38.6122 67.428C38.7682 67.5927 39.1105 67.6837 39.6392 67.701V68H36.8702V67.701C37.2082 67.6837 37.4422 67.5927 37.5722 67.428C37.7108 67.2633 37.7845 67.0207 37.7932 66.7L38.0922 60.655C38.1095 60.3517 38.0878 60.135 38.0272 60.005C37.9752 59.8663 37.8668 59.7753 37.7022 59.732C37.5375 59.6887 37.2905 59.6627 36.9612 59.654V59.355H39.1712C39.2405 59.5803 39.3142 59.7927 39.3922 59.992C39.4788 60.1913 39.5785 60.4123 39.6912 60.655L42.3172 66.427H42.3432L44.7612 60.655C44.8565 60.4297 44.9388 60.213 45.0082 60.005C45.0862 59.7883 45.1555 59.5717 45.2162 59.355H47.2702V59.654C47.0275 59.6627 46.8368 59.6887 46.6982 59.732C46.5595 59.7753 46.4642 59.8663 46.4122 60.005C46.3688 60.135 46.3515 60.3517 46.3602 60.655L46.6332 66.7C46.6505 66.9947 46.6895 67.2113 46.7502 67.35C46.8108 67.4887 46.9192 67.5797 47.0752 67.623C47.2398 67.6577 47.4652 67.6837 47.7512 67.701V68H44.7352V67.701C44.9432 67.6837 45.1078 67.6577 45.2292 67.623C45.3505 67.5797 45.4328 67.4887 45.4762 67.35C45.5282 67.2113 45.5455 66.9947 45.5282 66.7L45.2812 61.032H45.2552L42.8762 66.648C42.7288 67.012 42.6118 67.298 42.5252 67.506C42.4472 67.7053 42.3822 67.9047 42.3302 68.104H41.7972ZM49.0997 68V67.701C49.3337 67.6923 49.5157 67.6663 49.6457 67.623C49.7757 67.5797 49.8667 67.4887 49.9187 67.35C49.9794 67.2113 50.0097 66.9947 50.0097 66.7V60.655C50.0097 60.3517 49.975 60.135 49.9057 60.005C49.845 59.8663 49.728 59.7753 49.5547 59.732C49.3814 59.6887 49.1214 59.6627 48.7747 59.654V59.355H54.9627V61.175H54.6637C54.655 60.8977 54.6117 60.6593 54.5337 60.46C54.4557 60.252 54.3127 60.096 54.1047 59.992C53.8967 59.8793 53.589 59.823 53.1817 59.823H51.6867C51.5047 59.823 51.3617 59.8663 51.2577 59.953C51.1624 60.0397 51.1147 60.2737 51.1147 60.655V63.099C51.184 63.047 51.2664 63.0123 51.3617 62.995C51.4657 62.9777 51.587 62.969 51.7257 62.969H53.5587C54.07 62.969 54.3387 62.683 54.3647 62.111H54.6637V64.321H54.3647C54.356 63.9657 54.2954 63.7317 54.1827 63.619C54.07 63.4977 53.862 63.437 53.5587 63.437H51.7517C51.5177 63.437 51.353 63.476 51.2577 63.554C51.1624 63.632 51.1147 63.7837 51.1147 64.009V66.7C51.1147 67.0727 51.1797 67.3067 51.3097 67.402C51.4484 67.4887 51.7127 67.532 52.1027 67.532H53.9097C54.3344 67.532 54.668 67.4627 54.9107 67.324C55.1534 67.1767 55.331 66.986 55.4437 66.752C55.5564 66.5093 55.6257 66.2493 55.6517 65.972H55.9507L55.8467 68H49.0997ZM61.6828 68.195C61.0501 68.195 60.4608 68.091 59.9148 67.883C59.3688 67.6663 58.8878 67.363 58.4718 66.973C58.0645 66.5743 57.7481 66.102 57.5228 65.556C57.2975 65.01 57.1848 64.4077 57.1848 63.749C57.1848 63.0383 57.3148 62.4013 57.5748 61.838C57.8348 61.266 58.1901 60.7807 58.6408 60.382C59.0915 59.9833 59.6115 59.68 60.2008 59.472C60.7901 59.264 61.4141 59.16 62.0728 59.16C62.3935 59.16 62.7185 59.1817 63.0478 59.225C63.3858 59.2683 63.6978 59.329 63.9838 59.407C64.2785 59.4763 64.5211 59.5543 64.7118 59.641V61.695H64.4128C64.3781 61.1837 64.2351 60.785 63.9838 60.499C63.7325 60.2043 63.4205 59.9963 63.0478 59.875C62.6838 59.745 62.3025 59.68 61.9038 59.68C61.2885 59.68 60.7165 59.8187 60.1878 60.096C59.6591 60.3733 59.2345 60.798 58.9138 61.37C58.6018 61.9333 58.4458 62.657 58.4458 63.541C58.4458 64.3817 58.5931 65.114 58.8878 65.738C59.1825 66.3533 59.5725 66.83 60.0578 67.168C60.5518 67.506 61.0978 67.675 61.6958 67.675C62.2418 67.675 62.7228 67.5493 63.1388 67.298C63.5635 67.038 63.9101 66.713 64.1788 66.323C64.4475 65.933 64.6251 65.5387 64.7118 65.14H65.0108L64.9328 66.661C64.6035 67.0683 64.1788 67.428 63.6588 67.74C63.1388 68.0433 62.4801 68.195 61.6828 68.195ZM66.1821 68.078C65.9481 68.078 65.7141 68.052 65.4801 68V67.701C65.6794 67.701 65.8528 67.6793 66.0001 67.636C66.1474 67.5927 66.2991 67.4973 66.4551 67.35C66.6111 67.2027 66.7931 66.973 67.0011 66.661L69.2111 63.294C68.5958 63.1727 68.0888 62.9517 67.6901 62.631C67.3001 62.3017 67.1051 61.8683 67.1051 61.331C67.1051 60.9583 67.2048 60.6203 67.4041 60.317C67.6121 60.005 67.9284 59.758 68.3531 59.576C68.7778 59.3853 69.3194 59.29 69.9781 59.29C70.2294 59.29 70.5068 59.303 70.8101 59.329C71.1221 59.3463 71.4731 59.355 71.8631 59.355H73.2671V59.654C73.0331 59.6627 72.8511 59.6887 72.7211 59.732C72.5911 59.7753 72.4958 59.8663 72.4351 60.005C72.3831 60.135 72.3571 60.3517 72.3571 60.655V66.7C72.3571 66.9947 72.3874 67.2113 72.4481 67.35C72.5088 67.4887 72.6258 67.5797 72.7991 67.623C72.9811 67.6663 73.2411 67.6923 73.5791 67.701V68H70.3421V67.701C70.5761 67.6923 70.7581 67.6663 70.8881 67.623C71.0268 67.5797 71.1221 67.4887 71.1741 67.35C71.2261 67.2113 71.2521 66.9947 71.2521 66.7V60.655C71.2521 60.2563 71.1741 60.0093 71.0181 59.914C70.8708 59.81 70.6411 59.758 70.3291 59.758C69.9998 59.758 69.6791 59.797 69.3671 59.875C69.0638 59.953 68.8168 60.1047 68.6261 60.33C68.4354 60.5467 68.3401 60.8673 68.3401 61.292C68.3401 61.916 68.5741 62.3797 69.0421 62.683C69.5101 62.9863 70.1601 63.1033 70.9921 63.034V63.424C70.7408 63.424 70.5544 63.45 70.4331 63.502C70.3204 63.5453 70.2164 63.6407 70.1211 63.788L68.0281 67.051C67.8288 67.3717 67.5948 67.623 67.3261 67.805C67.0661 67.987 66.6848 68.078 66.1821 68.078ZM75.8697 60.655C75.8697 60.3517 75.8394 60.135 75.7787 60.005C75.7181 59.8663 75.5967 59.7753 75.4147 59.732C75.2414 59.6887 74.9857 59.6627 74.6477 59.654V59.355H77.8847V59.654C77.6507 59.6627 77.4687 59.6887 77.3387 59.732C77.2087 59.7753 77.1134 59.8663 77.0527 60.005C77.0007 60.135 76.9747 60.3517 76.9747 60.655V66.7C76.9747 67.064 77.0397 67.2937 77.1697 67.389C77.3084 67.4843 77.5684 67.532 77.9497 67.532H80.3547C80.5801 67.532 80.7447 67.4843 80.8487 67.389C80.9527 67.2937 81.0047 67.064 81.0047 66.7V60.655C81.0047 60.3517 80.9744 60.135 80.9137 60.005C80.8531 59.8663 80.7317 59.7753 80.5497 59.732C80.3764 59.6887 80.1207 59.6627 79.7827 59.654V59.355H83.0197V59.654C82.7857 59.6627 82.6037 59.6887 82.4737 59.732C82.3437 59.7753 82.2484 59.8663 82.1877 60.005C82.1357 60.135 82.1097 60.3517 82.1097 60.655V66.7C82.1097 66.9947 82.1617 67.2113 82.2657 67.35C82.3784 67.4887 82.5431 67.5797 82.7597 67.623C82.9851 67.6663 83.2667 67.6923 83.6047 67.701L83.3447 70.535H83.0457C83.0371 70.1277 82.9764 69.729 82.8637 69.339C82.7597 68.949 82.6081 68.6283 82.4087 68.377C82.2181 68.1257 81.9797 68 81.6937 68H74.9597V67.701C75.1937 67.6923 75.3757 67.6663 75.5057 67.623C75.6444 67.5797 75.7397 67.4887 75.7917 67.35C75.8437 67.2113 75.8697 66.9947 75.8697 66.7V60.655ZM84.837 68V67.701C85.071 67.6923 85.253 67.6663 85.383 67.623C85.513 67.5797 85.604 67.4887 85.656 67.35C85.7167 67.2113 85.747 66.9947 85.747 66.7V60.655C85.747 60.3517 85.7123 60.135 85.643 60.005C85.5823 59.8663 85.4653 59.7753 85.292 59.732C85.1187 59.6887 84.8587 59.6627 84.512 59.654V59.355H90.7V61.175H90.401C90.3923 60.8977 90.349 60.6593 90.271 60.46C90.193 60.252 90.05 60.096 89.842 59.992C89.634 59.8793 89.3263 59.823 88.919 59.823H87.424C87.242 59.823 87.099 59.8663 86.995 59.953C86.8997 60.0397 86.852 60.2737 86.852 60.655V63.099C86.9213 63.047 87.0037 63.0123 87.099 62.995C87.203 62.9777 87.3243 62.969 87.463 62.969H89.296C89.8073 62.969 90.076 62.683 90.102 62.111H90.401V64.321H90.102C90.0933 63.9657 90.0327 63.7317 89.92 63.619C89.8073 63.4977 89.5993 63.437 89.296 63.437H87.489C87.255 63.437 87.0903 63.476 86.995 63.554C86.8997 63.632 86.852 63.7837 86.852 64.009V66.7C86.852 67.0727 86.917 67.3067 87.047 67.402C87.1857 67.4887 87.45 67.532 87.84 67.532H89.647C90.0717 67.532 90.4053 67.4627 90.648 67.324C90.8907 67.1767 91.0683 66.986 91.181 66.752C91.2937 66.5093 91.363 66.2493 91.389 65.972H91.688L91.584 68H84.837ZM93.0001 68V67.701C93.2341 67.6923 93.4161 67.6663 93.5461 67.623C93.6848 67.5797 93.7801 67.4887 93.8321 67.35C93.8841 67.2113 93.9101 66.9947 93.9101 66.7V60.655C93.9101 60.3517 93.8754 60.135 93.8061 60.005C93.7454 59.8663 93.6284 59.7753 93.4551 59.732C93.2818 59.6887 93.0218 59.6627 92.6751 59.654V59.355H93.9101C94.3348 59.355 94.6814 59.3507 94.9501 59.342C95.2188 59.3247 95.4658 59.3117 95.6911 59.303C95.9251 59.2943 96.1938 59.29 96.4971 59.29C97.4158 59.29 98.0874 59.4503 98.5121 59.771C98.9368 60.083 99.1491 60.4947 99.1491 61.006C99.1491 61.5347 98.9758 61.955 98.6291 62.267C98.2824 62.579 97.8578 62.826 97.3551 63.008V63.034C97.8838 63.06 98.3518 63.164 98.7591 63.346C99.1751 63.5193 99.5044 63.7663 99.7471 64.087C99.9898 64.4077 100.111 64.7977 100.111 65.257C100.111 65.7077 99.9898 66.1453 99.7471 66.57C99.5131 66.986 99.1404 67.3283 98.6291 67.597C98.1264 67.8657 97.4678 68 96.6531 68H93.0001ZM95.0151 63.19C95.1278 63.112 95.2318 63.0643 95.3271 63.047C95.4311 63.021 95.5524 63.0037 95.6911 62.995C95.9511 62.969 96.2111 62.93 96.4711 62.878C96.7398 62.8173 96.9824 62.722 97.1991 62.592C97.4244 62.462 97.6064 62.2843 97.7451 62.059C97.8838 61.825 97.9531 61.5303 97.9531 61.175C97.9531 60.7677 97.8578 60.4643 97.6671 60.265C97.4764 60.0657 97.2381 59.9313 96.9521 59.862C96.6661 59.7927 96.3714 59.758 96.0681 59.758C95.6954 59.758 95.4268 59.8057 95.2621 59.901C95.0974 59.9963 95.0151 60.2477 95.0151 60.655V63.19ZM96.5491 67.532C97.1644 67.532 97.6411 67.4193 97.9791 67.194C98.3258 66.9687 98.5684 66.6913 98.7071 66.362C98.8458 66.024 98.9151 65.6903 98.9151 65.361C98.9151 64.8843 98.7938 64.5073 98.5511 64.23C98.3171 63.944 97.9964 63.7403 97.5891 63.619C97.1904 63.489 96.7398 63.424 96.2371 63.424C95.8124 63.424 95.5004 63.4803 95.3011 63.593C95.1104 63.697 95.0151 63.8963 95.0151 64.191V66.7C95.0151 66.9513 95.0584 67.1377 95.1451 67.259C95.2318 67.3717 95.3834 67.4453 95.6001 67.48C95.8254 67.5147 96.1418 67.532 96.5491 67.532Z" fill="white"/>
<rect x="113" width="117" height="36" rx="18" fill="#2C8484"/>
<path d="M145.031 19.985V20.024C145.282 20.0067 145.551 20.0327 145.837 20.102C146.123 20.1713 146.387 20.2883 146.63 20.453C146.881 20.6177 147.085 20.8387 147.241 21.116C147.397 21.3933 147.475 21.7313 147.475 22.13C147.475 22.65 147.327 23.1353 147.033 23.586C146.747 24.0453 146.352 24.4137 145.85 24.691C145.356 24.977 144.788 25.12 144.147 25.12C143.774 25.12 143.41 25.0637 143.055 24.951C142.708 24.847 142.392 24.6867 142.106 24.47C142.21 24.132 142.4 23.8677 142.678 23.677C142.938 23.9803 143.198 24.2187 143.458 24.392C143.726 24.5653 144.038 24.652 144.394 24.652C144.818 24.652 145.174 24.548 145.46 24.34C145.754 24.132 145.98 23.8547 146.136 23.508C146.292 23.17 146.37 22.8103 146.37 22.429C146.37 21.9177 146.244 21.5103 145.993 21.207C145.741 20.9037 145.395 20.7173 144.953 20.648C144.511 20.57 143.999 20.622 143.419 20.804V20.401C144.025 20.1843 144.498 19.9287 144.836 19.634C145.182 19.3393 145.429 19.036 145.577 18.724C145.724 18.412 145.798 18.126 145.798 17.866C145.798 17.5367 145.702 17.2897 145.512 17.125C145.321 16.9603 145.052 16.878 144.706 16.878C144.376 16.878 144.06 16.9603 143.757 17.125C143.462 17.2897 143.159 17.5583 142.847 17.931L142.626 17.723C142.981 17.177 143.358 16.7697 143.757 16.501C144.155 16.2237 144.628 16.085 145.174 16.085C145.685 16.085 146.097 16.2063 146.409 16.449C146.729 16.683 146.89 17.0427 146.89 17.528C146.89 18.0653 146.708 18.5333 146.344 18.932C145.98 19.3307 145.542 19.6817 145.031 19.985ZM157.66 22.104C157.591 21.9047 157.509 21.7053 157.413 21.506C157.318 21.298 157.188 21.012 157.023 20.648L154.54 15.123H154.514L154.254 20.7C154.246 21.0207 154.319 21.2633 154.475 21.428C154.631 21.5927 154.974 21.6837 155.502 21.701V22H152.733V21.701C153.071 21.6837 153.305 21.5927 153.435 21.428C153.574 21.2633 153.648 21.0207 153.656 20.7L153.955 14.655C153.973 14.3517 153.951 14.135 153.89 14.005C153.838 13.8663 153.73 13.7753 153.565 13.732C153.401 13.6887 153.154 13.6627 152.824 13.654V13.355H155.034C155.104 13.5803 155.177 13.7927 155.255 13.992C155.342 14.1913 155.442 14.4123 155.554 14.655L158.18 20.427H158.206L160.624 14.655C160.72 14.4297 160.802 14.213 160.871 14.005C160.949 13.7883 161.019 13.5717 161.079 13.355H163.133V13.654C162.891 13.6627 162.7 13.6887 162.561 13.732C162.423 13.7753 162.327 13.8663 162.275 14.005C162.232 14.135 162.215 14.3517 162.223 14.655L162.496 20.7C162.514 20.9947 162.553 21.2113 162.613 21.35C162.674 21.4887 162.782 21.5797 162.938 21.623C163.103 21.6577 163.328 21.6837 163.614 21.701V22H160.598V21.701C160.806 21.6837 160.971 21.6577 161.092 21.623C161.214 21.5797 161.296 21.4887 161.339 21.35C161.391 21.2113 161.409 20.9947 161.391 20.7L161.144 15.032H161.118L158.739 20.648C158.592 21.012 158.475 21.298 158.388 21.506C158.31 21.7053 158.245 21.9047 158.193 22.104H157.66ZM169.24 13.16C169.829 13.16 170.384 13.264 170.904 13.472C171.424 13.68 171.888 13.9833 172.295 14.382C172.702 14.772 173.019 15.2443 173.244 15.799C173.478 16.3537 173.595 16.9733 173.595 17.658C173.595 18.3427 173.478 18.9623 173.244 19.517C173.019 20.0717 172.702 20.5483 172.295 20.947C171.896 21.3457 171.433 21.6533 170.904 21.87C170.375 22.0867 169.816 22.195 169.227 22.195C168.646 22.195 168.092 22.091 167.563 21.883C167.043 21.675 166.579 21.376 166.172 20.986C165.773 20.5873 165.457 20.1107 165.223 19.556C164.998 19.0013 164.885 18.3817 164.885 17.697C164.885 17.0123 164.998 16.3927 165.223 15.838C165.457 15.2833 165.773 14.8067 166.172 14.408C166.579 14.0093 167.043 13.7017 167.563 13.485C168.092 13.2683 168.651 13.16 169.24 13.16ZM169.422 21.675C169.942 21.675 170.419 21.532 170.852 21.246C171.294 20.96 171.649 20.5397 171.918 19.985C172.187 19.4217 172.321 18.7283 172.321 17.905C172.321 17.0037 172.165 16.241 171.853 15.617C171.541 14.9843 171.138 14.5033 170.644 14.174C170.15 13.8447 169.621 13.68 169.058 13.68C168.538 13.68 168.057 13.823 167.615 14.109C167.173 14.395 166.818 14.8197 166.549 15.383C166.28 15.9377 166.146 16.6267 166.146 17.45C166.146 18.3513 166.302 19.1183 166.614 19.751C166.926 20.375 167.333 20.8517 167.836 21.181C168.339 21.5103 168.867 21.675 169.422 21.675ZM179.02 14.382L180.944 20.7C181.005 20.882 181.07 21.038 181.139 21.168C181.208 21.2893 181.321 21.3933 181.477 21.48C181.633 21.5667 181.863 21.6403 182.166 21.701L181.698 24.535H181.399C181.46 23.911 181.429 23.4127 181.308 23.04C181.195 22.6673 181.035 22.3987 180.827 22.234C180.628 22.078 180.428 22 180.229 22H176.16C175.883 22 175.623 22.1257 175.38 22.377C175.137 22.6283 174.942 22.949 174.795 23.339C174.648 23.729 174.565 24.1277 174.548 24.535H174.249V21.701C174.604 21.6143 174.886 21.415 175.094 21.103C175.311 20.7823 175.484 20.4313 175.614 20.05L177.499 14.382C177.577 14.1567 177.655 13.9357 177.733 13.719C177.82 13.5023 177.893 13.2813 177.954 13.056H178.591C178.652 13.2813 178.721 13.5023 178.799 13.719C178.877 13.9357 178.951 14.1567 179.02 14.382ZM178.994 21.532C179.289 21.5233 179.501 21.5017 179.631 21.467C179.77 21.4323 179.843 21.3587 179.852 21.246C179.869 21.1247 179.839 20.9427 179.761 20.7L177.98 14.694H177.954L175.705 21.532H178.994ZM183.515 22.195C183.247 22.195 183.03 22.104 182.865 21.922C182.701 21.7313 182.618 21.4713 182.618 21.142C182.618 20.804 182.683 20.4617 182.813 20.115H183.112C183.138 20.453 183.199 20.713 183.294 20.895C183.398 21.0683 183.55 21.155 183.749 21.155C183.966 21.155 184.157 21.1073 184.321 21.012C184.486 20.9167 184.655 20.7477 184.828 20.505C185.002 20.2623 185.197 19.9243 185.413 19.491L182.501 14.655C182.337 14.369 182.207 14.161 182.111 14.031C182.025 13.8923 181.934 13.797 181.838 13.745C181.743 13.693 181.596 13.6627 181.396 13.654V13.355H184.373L184.36 13.654C183.936 13.6713 183.658 13.7407 183.528 13.862C183.407 13.9833 183.468 14.2477 183.71 14.655L185.946 18.373L187.675 14.655C187.814 14.3603 187.818 14.1263 187.688 13.953C187.567 13.771 187.251 13.6713 186.739 13.654V13.355H189.417V13.654C189.166 13.6713 188.962 13.7667 188.806 13.94C188.65 14.1133 188.499 14.3517 188.351 14.655L186.232 19.127C185.946 19.7337 185.66 20.2667 185.374 20.726C185.097 21.1853 184.807 21.545 184.503 21.805C184.2 22.065 183.871 22.195 183.515 22.195ZM190.208 20.7C190.096 21.0293 190.096 21.2763 190.208 21.441C190.33 21.597 190.668 21.6837 191.222 21.701V22H188.531V21.701C188.809 21.6837 189.03 21.597 189.194 21.441C189.359 21.2763 189.498 21.0293 189.61 20.7L191.716 14.382C191.794 14.1567 191.872 13.9357 191.95 13.719C192.037 13.5023 192.111 13.2813 192.171 13.056H192.808C192.869 13.2813 192.938 13.5023 193.016 13.719C193.103 13.927 193.181 14.148 193.25 14.382L195.174 20.7C195.27 21.0033 195.365 21.2243 195.46 21.363C195.556 21.5017 195.673 21.5883 195.811 21.623C195.95 21.6577 196.132 21.6837 196.357 21.701V22H193.25V21.701C193.545 21.6837 193.762 21.6533 193.9 21.61C194.048 21.5667 194.13 21.4757 194.147 21.337C194.165 21.1983 194.121 20.986 194.017 20.7L192.197 14.694H192.171L190.208 20.7ZM196.874 22.078C196.64 22.078 196.406 22.052 196.172 22V21.701C196.371 21.701 196.544 21.6793 196.692 21.636C196.839 21.5927 196.991 21.4973 197.147 21.35C197.303 21.2027 197.485 20.973 197.693 20.661L199.903 17.294C199.287 17.1727 198.78 16.9517 198.382 16.631C197.992 16.3017 197.797 15.8683 197.797 15.331C197.797 14.9583 197.896 14.6203 198.096 14.317C198.304 14.005 198.62 13.758 199.045 13.576C199.469 13.3853 200.011 13.29 200.67 13.29C200.921 13.29 201.198 13.303 201.502 13.329C201.814 13.3463 202.165 13.355 202.555 13.355H203.959V13.654C203.725 13.6627 203.543 13.6887 203.413 13.732C203.283 13.7753 203.187 13.8663 203.127 14.005C203.075 14.135 203.049 14.3517 203.049 14.655V20.7C203.049 20.9947 203.079 21.2113 203.14 21.35C203.2 21.4887 203.317 21.5797 203.491 21.623C203.673 21.6663 203.933 21.6923 204.271 21.701V22H201.034V21.701C201.268 21.6923 201.45 21.6663 201.58 21.623C201.718 21.5797 201.814 21.4887 201.866 21.35C201.918 21.2113 201.944 20.9947 201.944 20.7V14.655C201.944 14.2563 201.866 14.0093 201.71 13.914C201.562 13.81 201.333 13.758 201.021 13.758C200.691 13.758 200.371 13.797 200.059 13.875C199.755 13.953 199.508 14.1047 199.318 14.33C199.127 14.5467 199.032 14.8673 199.032 15.292C199.032 15.916 199.266 16.3797 199.734 16.683C200.202 16.9863 200.852 17.1033 201.684 17.034V17.424C201.432 17.424 201.246 17.45 201.125 17.502C201.012 17.5453 200.908 17.6407 200.813 17.788L198.72 21.051C198.52 21.3717 198.286 21.623 198.018 21.805C197.758 21.987 197.376 22.078 196.874 22.078Z" fill="white"/>
<rect x="200" y="46" width="128" height="36" rx="18" fill="#2C8484"/>
<path d="M230.358 66.063H230.657L230.553 68H225.886V67.701C225.99 67.6403 226.103 67.5753 226.224 67.506C226.354 67.428 226.488 67.3327 226.627 67.22C226.87 67.038 227.121 66.817 227.381 66.557C227.65 66.297 227.897 66.0153 228.122 65.712C228.356 65.4087 228.547 65.101 228.694 64.789C228.841 64.4683 228.915 64.1607 228.915 63.866C228.915 63.5973 228.837 63.3677 228.681 63.177C228.525 62.9777 228.256 62.878 227.875 62.878C227.537 62.878 227.238 62.9603 226.978 63.125C226.727 63.2897 226.475 63.515 226.224 63.801L225.977 63.593C226.28 63.073 226.618 62.6917 226.991 62.449C227.372 62.2063 227.814 62.085 228.317 62.085C228.889 62.085 229.314 62.228 229.591 62.514C229.877 62.7913 230.02 63.1597 230.02 63.619C230.02 64.0697 229.912 64.4813 229.695 64.854C229.487 65.218 229.197 65.5777 228.824 65.933C228.451 66.2797 228.027 66.648 227.55 67.038V67.077H229.019C229.504 67.077 229.838 66.9903 230.02 66.817C230.211 66.635 230.323 66.3837 230.358 66.063ZM232.279 67.077H234.97V63.463H234.931L232.279 67.077ZM235.958 70.925L234.892 71.12C234.909 70.756 234.926 70.3053 234.944 69.768C234.961 69.2307 234.97 68.6413 234.97 68H231.161V67.701C231.265 67.5883 231.356 67.4757 231.434 67.363C231.52 67.2503 231.607 67.1377 231.694 67.025L235.048 62.501C235.143 62.3797 235.225 62.2627 235.295 62.15C235.373 62.0287 235.438 61.9203 235.49 61.825H235.945L235.932 67.077H236.842V68H236.296C236.157 68 236.062 68.0477 236.01 68.143C235.958 68.2383 235.932 68.364 235.932 68.52C235.932 68.9187 235.932 69.3217 235.932 69.729C235.94 70.1363 235.949 70.535 235.958 70.925ZM245.422 63.359C245.76 63.4023 246.098 63.5063 246.436 63.671C246.774 63.8357 247.056 64.074 247.281 64.386C247.515 64.698 247.632 65.101 247.632 65.595C247.632 66.0977 247.493 66.5483 247.216 66.947C246.939 67.337 246.544 67.6447 246.033 67.87C245.522 68.0867 244.911 68.195 244.2 68.195C243.689 68.195 243.225 68.143 242.809 68.039C242.402 67.935 242.077 67.8267 241.834 67.714V65.66H242.133C242.185 66.388 242.415 66.908 242.822 67.22C243.229 67.5233 243.723 67.675 244.304 67.675C244.807 67.675 245.21 67.584 245.513 67.402C245.816 67.2113 246.037 66.9643 246.176 66.661C246.323 66.349 246.397 66.0153 246.397 65.66C246.397 64.2473 245.361 63.5973 243.29 63.71V63.242C244.001 63.242 244.56 63.1423 244.967 62.943C245.374 62.7437 245.665 62.4923 245.838 62.189C246.011 61.8857 246.098 61.578 246.098 61.266C246.098 60.9887 246.046 60.7287 245.942 60.486C245.838 60.2433 245.665 60.0483 245.422 59.901C245.188 59.7537 244.876 59.68 244.486 59.68C243.888 59.68 243.394 59.8447 243.004 60.174C242.614 60.5033 242.354 60.967 242.224 61.565H241.925L242.016 59.862C242.155 59.7753 242.354 59.68 242.614 59.576C242.883 59.4633 243.199 59.368 243.563 59.29C243.927 59.2033 244.321 59.16 244.746 59.16C245.517 59.16 246.128 59.3333 246.579 59.68C247.038 60.018 247.268 60.5207 247.268 61.188C247.268 61.578 247.173 61.916 246.982 62.202C246.8 62.4793 246.566 62.709 246.28 62.891C246.003 63.073 245.717 63.216 245.422 63.32V63.359ZM255.342 66.7C255.446 67.0033 255.546 67.2243 255.641 67.363C255.737 67.493 255.849 67.5797 255.979 67.623C256.118 67.6577 256.3 67.6837 256.525 67.701V68H253.418V67.701C253.713 67.6837 253.93 67.6533 254.068 67.61C254.216 67.5667 254.298 67.4757 254.315 67.337C254.333 67.1983 254.289 66.986 254.185 66.7L253.444 64.464C253.401 64.5073 253.336 64.5377 253.249 64.555C253.163 64.5637 253.072 64.568 252.976 64.568H251.273C251.083 64.568 250.94 64.5897 250.844 64.633C250.749 64.6763 250.667 64.7933 250.597 64.984L249.986 66.7C249.874 67.0293 249.874 67.2763 249.986 67.441C250.108 67.597 250.446 67.6837 251 67.701V68H248.309V67.701C248.587 67.6837 248.803 67.597 248.959 67.441C249.124 67.2763 249.267 67.0293 249.388 66.7L251.689 60.382C251.776 60.1567 251.858 59.9357 251.936 59.719C252.014 59.5023 252.084 59.2813 252.144 59.056H252.781C252.842 59.2813 252.907 59.5023 252.976 59.719C253.054 59.9357 253.137 60.1567 253.223 60.382L255.342 66.7ZM253.002 64.1C253.115 64.1 253.193 64.087 253.236 64.061C253.28 64.0263 253.28 63.957 253.236 63.853L252.17 60.694H252.144L250.896 64.139C250.94 64.1217 250.992 64.113 251.052 64.113C251.113 64.1043 251.182 64.1 251.26 64.1H253.002ZM257.393 68V67.701C257.627 67.6923 257.809 67.6663 257.939 67.623C258.078 67.5797 258.173 67.4887 258.225 67.35C258.277 67.2113 258.303 66.9947 258.303 66.7V60.655C258.303 60.3517 258.268 60.135 258.199 60.005C258.138 59.8663 258.021 59.7753 257.848 59.732C257.675 59.6887 257.415 59.6627 257.068 59.654V59.355H260.318V59.654C260.084 59.6627 259.902 59.6887 259.772 59.732C259.642 59.7753 259.547 59.8663 259.486 60.005C259.434 60.135 259.408 60.3517 259.408 60.655V62.93C259.477 62.878 259.56 62.8433 259.655 62.826C259.759 62.8087 259.88 62.8 260.019 62.8H263.451C263.685 62.8 263.85 62.761 263.945 62.683C264.04 62.605 264.088 62.449 264.088 62.215V60.655C264.088 60.3517 264.053 60.135 263.984 60.005C263.923 59.8663 263.806 59.7753 263.633 59.732C263.46 59.6887 263.2 59.6627 262.853 59.654V59.355H266.103V59.654C265.869 59.6627 265.687 59.6887 265.557 59.732C265.427 59.7753 265.332 59.8663 265.271 60.005C265.219 60.135 265.193 60.3517 265.193 60.655V66.7C265.193 66.9947 265.223 67.2113 265.284 67.35C265.345 67.4887 265.462 67.5797 265.635 67.623C265.817 67.6663 266.077 67.6923 266.415 67.701V68H263.178V67.701C263.412 67.6923 263.594 67.6663 263.724 67.623C263.863 67.5797 263.958 67.4887 264.01 67.35C264.062 67.2113 264.088 66.9947 264.088 66.7V63.125C264.019 63.1857 263.932 63.2247 263.828 63.242C263.724 63.2593 263.607 63.268 263.477 63.268H260.045C259.811 63.268 259.646 63.307 259.551 63.385C259.456 63.463 259.408 63.6147 259.408 63.84V66.7C259.408 66.9947 259.438 67.2113 259.499 67.35C259.568 67.4887 259.69 67.5797 259.863 67.623C260.036 67.6663 260.292 67.6923 260.63 67.701V68H257.393ZM267.569 68.078C267.335 68.078 267.101 68.052 266.867 68V67.701C267.067 67.701 267.24 67.6793 267.387 67.636C267.535 67.5927 267.686 67.4973 267.842 67.35C267.998 67.2027 268.18 66.973 268.388 66.661L270.598 63.294C269.983 63.1727 269.476 62.9517 269.077 62.631C268.687 62.3017 268.492 61.8683 268.492 61.331C268.492 60.9583 268.592 60.6203 268.791 60.317C268.999 60.005 269.316 59.758 269.74 59.576C270.165 59.3853 270.707 59.29 271.365 59.29C271.617 59.29 271.894 59.303 272.197 59.329C272.509 59.3463 272.86 59.355 273.25 59.355H274.654V59.654C274.42 59.6627 274.238 59.6887 274.108 59.732C273.978 59.7753 273.883 59.8663 273.822 60.005C273.77 60.135 273.744 60.3517 273.744 60.655V66.7C273.744 66.9947 273.775 67.2113 273.835 67.35C273.896 67.4887 274.013 67.5797 274.186 67.623C274.368 67.6663 274.628 67.6923 274.966 67.701V68H271.729V67.701C271.963 67.6923 272.145 67.6663 272.275 67.623C272.414 67.5797 272.509 67.4887 272.561 67.35C272.613 67.2113 272.639 66.9947 272.639 66.7V60.655C272.639 60.2563 272.561 60.0093 272.405 59.914C272.258 59.81 272.028 59.758 271.716 59.758C271.387 59.758 271.066 59.797 270.754 59.875C270.451 59.953 270.204 60.1047 270.013 60.33C269.823 60.5467 269.727 60.8673 269.727 61.292C269.727 61.916 269.961 62.3797 270.429 62.683C270.897 62.9863 271.547 63.1033 272.379 63.034V63.424C272.128 63.424 271.942 63.45 271.82 63.502C271.708 63.5453 271.604 63.6407 271.508 63.788L269.415 67.051C269.216 67.3717 268.982 67.623 268.713 67.805C268.453 67.987 268.072 68.078 267.569 68.078ZM276.035 59.355H283.042V61.383H282.743C282.726 61.0797 282.678 60.811 282.6 60.577C282.522 60.343 282.375 60.161 282.158 60.031C281.941 59.8923 281.612 59.823 281.17 59.823H280.091V66.7C280.091 66.9947 280.121 67.2113 280.182 67.35C280.251 67.4887 280.373 67.5797 280.546 67.623C280.728 67.6663 280.988 67.6923 281.326 67.701V68H278.076V67.701C278.31 67.6923 278.492 67.6663 278.622 67.623C278.761 67.5797 278.856 67.4887 278.908 67.35C278.96 67.2113 278.986 66.9947 278.986 66.7V59.823H277.894C277.461 59.823 277.136 59.8923 276.919 60.031C276.702 60.161 276.555 60.343 276.477 60.577C276.399 60.811 276.351 61.0797 276.334 61.383H276.035V59.355ZM284.434 68V67.701C284.668 67.6923 284.85 67.6663 284.98 67.623C285.119 67.5797 285.214 67.4887 285.266 67.35C285.318 67.2113 285.344 66.9947 285.344 66.7V60.655C285.344 60.3517 285.31 60.135 285.24 60.005C285.18 59.8663 285.063 59.7753 284.889 59.732C284.716 59.6887 284.456 59.6627 284.109 59.654V59.355H287.359V59.654C287.125 59.6627 286.943 59.6887 286.813 59.732C286.683 59.7753 286.588 59.8663 286.527 60.005C286.475 60.135 286.449 60.3517 286.449 60.655V66.622L291.389 59.355H293.144V59.654C292.91 59.6627 292.728 59.6887 292.598 59.732C292.468 59.7753 292.373 59.8663 292.312 60.005C292.26 60.135 292.234 60.3517 292.234 60.655V66.7C292.234 66.9947 292.265 67.2113 292.325 67.35C292.386 67.4887 292.503 67.5797 292.676 67.623C292.858 67.6663 293.118 67.6923 293.456 67.701V68H290.219V67.701C290.453 67.6923 290.635 67.6663 290.765 67.623C290.904 67.5797 290.999 67.4887 291.051 67.35C291.103 67.2113 291.129 66.9947 291.129 66.7V60.746L286.189 68H284.434ZM294.61 68.078C294.376 68.078 294.142 68.052 293.908 68V67.701C294.108 67.701 294.281 67.6793 294.428 67.636C294.576 67.5927 294.727 67.4973 294.883 67.35C295.039 67.2027 295.221 66.973 295.429 66.661L297.639 63.294C297.024 63.1727 296.517 62.9517 296.118 62.631C295.728 62.3017 295.533 61.8683 295.533 61.331C295.533 60.9583 295.633 60.6203 295.832 60.317C296.04 60.005 296.357 59.758 296.781 59.576C297.206 59.3853 297.748 59.29 298.406 59.29C298.658 59.29 298.935 59.303 299.238 59.329C299.55 59.3463 299.901 59.355 300.291 59.355H301.695V59.654C301.461 59.6627 301.279 59.6887 301.149 59.732C301.019 59.7753 300.924 59.8663 300.863 60.005C300.811 60.135 300.785 60.3517 300.785 60.655V66.7C300.785 66.9947 300.816 67.2113 300.876 67.35C300.937 67.4887 301.054 67.5797 301.227 67.623C301.409 67.6663 301.669 67.6923 302.007 67.701V68H298.77V67.701C299.004 67.6923 299.186 67.6663 299.316 67.623C299.455 67.5797 299.55 67.4887 299.602 67.35C299.654 67.2113 299.68 66.9947 299.68 66.7V60.655C299.68 60.2563 299.602 60.0093 299.446 59.914C299.299 59.81 299.069 59.758 298.757 59.758C298.428 59.758 298.107 59.797 297.795 59.875C297.492 59.953 297.245 60.1047 297.054 60.33C296.864 60.5467 296.768 60.8673 296.768 61.292C296.768 61.916 297.002 62.3797 297.47 62.683C297.938 62.9863 298.588 63.1033 299.42 63.034V63.424C299.169 63.424 298.983 63.45 298.861 63.502C298.749 63.5453 298.645 63.6407 298.549 63.788L296.456 67.051C296.257 67.3717 296.023 67.623 295.754 67.805C295.494 67.987 295.113 68.078 294.61 68.078Z" fill="white"/>
</svg>
